<?xml version="1.0" standalone="no"?>
<!DOCTYPE svg PUBLIC "-//W3C//DTD SVG 20010904//EN"
 "http://www.w3.org/TR/2001/REC-SVG-20010904/DTD/svg10.dtd">
<svg version="1.0" xmlns="http://www.w3.org/2000/svg"
 width="256.000000pt" height="256.000000pt" viewBox="0 0 256.000000 256.000000"
 preserveAspectRatio="xMidYMid meet">
<metadata>
Created by potrace 1.11, written by Peter Selinger 2001-2013
</metadata>
<g transform="translate(0.000000,256.000000) scale(0.100000,-0.100000)"
fill="#000000" stroke="none">
<path d="M0 1280 l0 -1280 1280 0 1280 0 0 1280 0 1280 -1280 0 -1280 0 0
-1280z m1893 605 c169 -44 285 -158 343 -339 36 -109 45 -329 20 -457 -22
-112 -73 -216 -137 -284 -98 -104 -210 -149 -374 -149 -265 0 -437 133 -507
391 -28 106 -31 343 -4 448 54 210 174 341 356 389 73 19 231 20 303 1z m-986
-107 c-12 -174 -3 -865 12 -911 17 -53 69 -107 122 -127 30 -12 45 -24 47 -39
l3 -21 -350 0 -351 0 0 24 c0 19 8 26 46 36 65 19 118 71 138 139 13 46 16
113 16 409 l0 355 -30 -41 c-16 -23 -41 -49 -56 -58 -34 -23 -102 -22 -141 1
-37 22 -76 86 -71 118 3 19 11 23 65 29 110 12 198 66 249 154 l26 44 142 0
141 0 -8 -112z"/>
<path d="M1673 1754 c-98 -49 -139 -216 -130 -532 6 -205 22 -288 71 -362 71
-108 213 -94 275 29 68 134 80 534 21 722 -41 134 -137 192 -237 143z"/>
</g>
</svg>
