<?xml version="1.0" encoding="UTF-8"?>
<svg width="58px" height="98px" viewBox="0 0 58 98" version="1.1" xmlns="http://www.w3.org/2000/svg" xmlns:xlink="http://www.w3.org/1999/xlink">
    <!-- Generator: Sketch 48.1 (47250) - http://www.bohemiancoding.com/sketch -->
    <title>icn-ornaments</title>
    <desc>Created with Sketch.</desc>
    <defs></defs>
    <g id="Homepage" stroke="none" stroke-width="1" fill="none" fill-rule="evenodd" transform="translate(-691.000000, -745.000000)">
        <g id="icn-ornaments" transform="translate(691.000000, 745.000000)" fill="#FF3829">
            <path d="M57.4708443,41.5026187 C57.4708443,36.6310273 54.2579937,32.4962566 49.8358082,31.1017997 L49.8358082,29.5170627 C49.8358082,28.8815199 49.4454682,28.3387222 48.8913166,28.1096178 C48.8995065,26.9885569 48.2034436,26.1102655 47.2534945,25.8129397 C47.2534945,8.60431322 47.2534945,4.24259181e-15 47.2534945,2.18190436e-15 C47.2534945,-9.69735271e-16 46.787631,-9.69735271e-16 45.8559041,2.18190436e-15 L45.8559041,25.8101466 C44.9059619,26.1101887 44.209892,26.9884871 44.209892,28.0331776 C43.6639583,28.3332197 43.2735904,28.8787687 43.2735904,29.5142696 L43.2735904,31.0990066 C38.8542699,32.4928351 35.6385542,36.6279549 35.6385542,41.4998256 C35.6412865,47.5142851 40.5382964,52.4075928 46.5544337,52.4075928 C52.5738973,52.4075928 57.4708443,47.5142153 57.4708443,41.5026187 Z M45.6159239,27.9923773 C45.6377612,27.4904916 46.0499386,27.0867834 46.5576901,27.0867834 C47.0654067,27.0867834 47.4775841,27.4904706 47.4994564,27.9923773 L45.6159239,27.9923773 Z M48.4411528,30.7691411 C47.8269747,30.6627658 47.2019094,30.5945722 46.5576901,30.5945722 C45.9134708,30.5945722 45.2883986,30.6627658 44.6742275,30.7691411 L44.6742275,29.5144092 C44.6742275,29.4462156 44.7288243,29.388936 44.799794,29.388936 L48.3183675,29.388936 C48.3866118,29.388936 48.443934,29.4434853 48.443934,29.5144092 L48.4411528,30.7691411 Z M37.0396106,41.4995463 C37.0396106,36.2543075 41.3088299,31.9911239 46.5551046,31.9911239 C51.8042443,31.9911239 56.0733937,36.2571704 56.0733937,41.4995463 C56.0733937,46.7447851 51.8041745,51.0079687 46.5551046,51.0079687 C41.3086901,51.010692 37.0396106,46.7446454 37.0396106,41.4995463 Z" id="Fill-1"></path>
            <path d="M10.4686506,52.7216983 C16.012612,52.7216983 20.5222169,48.2156543 20.5222169,42.6756034 C20.5222169,38.2050319 17.5823855,34.4080172 13.5314699,33.1099224 L13.5314699,31.7897621 C13.5314699,31.2087756 13.1875299,30.7095991 12.6934747,30.4777716 C12.6989323,29.4413067 12.054727,28.6148274 11.1703178,28.3202248 C11.168501,9.49299494 11.1675925,0.07938 11.1675925,0.07938 C11.1675925,0.07938 10.7017291,0.07938 9.77000217,0.07938 L9.77000217,28.3230179 C8.88560699,28.6176066 8.24138771,29.4440998 8.24138771,30.4260153 C7.75277614,30.7124132 7.40885012,31.2115897 7.40885012,31.7925552 L7.40885012,33.1127155 C3.35800434,34.4110897 0.415307952,38.2052414 0.415307952,42.6756034 C0.415084337,48.2154448 4.92447952,52.7216983 10.4686506,52.7216983 Z M9.65525301,30.3412586 C9.70166,29.9239271 10.0401354,29.5966172 10.4687205,29.5966172 C10.8973055,29.5966172 11.2385133,29.9266643 11.282188,30.3412586 L9.65525301,30.3412586 Z M12.1338096,32.7825009 C11.5906082,32.6924861 11.0364916,32.6324833 10.4687205,32.6324833 C9.9009494,32.6324833 9.34680482,32.6924931 8.80363133,32.7825009 L8.80363133,31.795069 C8.80363133,31.7650641 8.82820096,31.7405197 8.8582212,31.7405197 L12.0792477,31.7405197 C12.1092749,31.7405197 12.1338446,31.7650641 12.1338446,31.795069 L12.1338096,32.7825009 Z M1.81260482,42.6756733 C1.81260482,37.9077759 5.69692771,34.0261302 10.4685807,34.0261302 C15.2402337,34.0261302 19.1245566,37.9075664 19.1245566,42.6756733 C19.1245566,47.446294 15.2402337,51.3252164 10.4685807,51.3252164 C5.69441205,51.3252164 1.81260482,47.4465034 1.81260482,42.6756733 Z" id="Fill-2"></path>
            <path d="M22.8065783,93.8676034 C24.7719398,95.0513905 26.4698024,96.0714996 27.0129759,97.5417195 C27.1139728,97.8172102 27.376021,97.9972327 27.6680964,97.9972327 C27.9601718,97.9972327 28.22222,97.81448 28.3232169,97.5417195 C28.8664183,96.0742229 30.5615277,95.0513905 32.5296145,93.8676034 C35.6769181,91.9719241 39.5937349,89.61245 40.3176867,84.1545862 C41.5023542,75.2054828 35.393347,72.4424052 33.4962578,71.809069 C32.1696651,71.367193 31.7274675,70.7752716 31.5909229,70.5134181 C31.5909229,70.5079622 31.5927421,69.6960397 31.5963805,68.0776503 C31.5963805,67.3384555 31.126874,66.7138478 30.4744648,66.4656107 C30.5017667,64.8781364 29.592774,63.7789105 28.3698824,63.4651752 L28.3671501,0.0787096552 L26.9695598,0.0787096552 L26.9695598,63.4651752 C25.7493935,63.7788547 24.8376754,64.8780666 24.8376754,66.1955734 C24.2125822,66.7110966 23.7430547,67.3384555 23.7430547,68.0776503 L23.7430547,70.4888667 C23.6147629,70.769811 23.1780159,71.3644697 21.8431843,71.809062 C19.9433,72.4418745 13.837088,75.204987 15.0190301,84.1545792 C15.7391036,89.6125897 19.6589253,91.9717845 22.8065783,93.8676034 Z M30.1956386,68.0753879 L30.1956455,69.8129078 L25.143,69.8129078 L25.143,68.0753879 C25.143,67.8926352 25.2904039,67.7453409 25.4732925,67.7453409 L29.8680853,67.7453409 C30.0482417,67.7480641 30.1956455,67.8953584 30.1956455,68.0753879 L30.1956386,68.0753879 Z M29.1010458,66.1960483 C29.1010458,66.2478743 29.0901306,66.2997003 29.084666,66.3515264 L26.2512612,66.3515264 C26.2458036,66.2997003 26.2348884,66.2506046 26.2348884,66.1960483 C26.2348884,65.4077647 26.8790937,64.7640241 27.6679776,64.7640241 C28.4595728,64.7640241 29.1010667,65.4077507 29.1010667,66.1960483 L29.1010458,66.1960483 Z M16.4053349,83.9720569 C16.3671178,83.6856521 16.3534704,83.4237986 16.331633,83.1510241 C16.6892205,83.2955882 16.953994,83.6501797 17.3225246,84.179375 C17.8520786,84.9349095 18.507192,85.8759759 19.8502065,85.8759759 C21.193221,85.8759759 21.8510667,84.9349095 22.3778884,84.179375 C22.8692253,83.4756526 23.1749342,83.0801491 23.7618523,83.0801491 C24.3460031,83.0801491 24.6516981,83.4783828 25.1430908,84.179375 C25.6726448,84.9349095 26.3304836,85.8759759 27.6707728,85.8759759 C29.0137872,85.8759759 29.6689077,84.9349095 30.1984547,84.179375 C30.6897916,83.4756526 30.9955005,83.0801491 31.5824186,83.0801491 C32.1665694,83.0801491 32.4722643,83.4783828 32.9636571,84.179375 C33.4932111,84.9349095 34.1483246,85.8759759 35.491339,85.8759759 C36.8316282,85.8759759 37.489474,84.9349095 38.019021,84.179375 C38.3875236,83.6529378 38.6523041,83.2983603 39.0071872,83.1510241 C38.9853499,83.4210614 38.9717024,83.6856381 38.9334853,83.9720569 C38.3002022,88.7645336 34.8526612,90.8402284 31.8092684,92.6732724 C30.1796781,93.6551879 28.6182901,94.5962543 27.668348,95.8673245 C26.7184058,94.593531 25.1570178,93.6551879 23.5274275,92.6732724 C20.4865504,90.8402983 17.0389745,88.7645336 16.4060058,83.9720569 L16.4053349,83.9720569 Z M22.2850675,73.1348155 C23.9419807,72.583834 24.6571277,71.7655664 24.9628506,71.2118336 L30.375788,71.2118336 C30.6815108,71.7682757 31.3939325,72.583806 33.0535711,73.1348155 C34.9370337,73.7621745 38.9496554,75.8078853 39.0588771,81.7131345 C37.9479325,81.8604288 37.3528386,82.6923267 36.8724169,83.3797095 C36.38108,84.0807086 36.0753711,84.4789353 35.4911783,84.4789353 C34.9070275,84.4789353 34.6013325,84.0807016 34.1099398,83.3797095 C33.5803858,82.624175 32.9252723,81.6831086 31.5822578,81.6831086 C30.2392434,81.6831086 29.5841229,82.624175 29.0545759,83.3797095 C28.563239,84.0834319 28.2575301,84.4789353 27.670612,84.4789353 C27.0864612,84.4789353 26.7807663,84.0807016 26.2866482,83.3797095 C25.7570942,82.624175 25.1019807,81.6831086 23.7589663,81.6831086 C22.4159518,81.6831086 21.758106,82.624175 21.2312843,83.3797095 C20.7399475,84.0834319 20.4342386,84.4789353 19.8473205,84.4789353 C19.2604024,84.4789353 18.9547494,84.0807016 18.4633566,83.3797095 C17.9829349,82.6923407 17.3905663,81.8604009 16.2768964,81.7131345 C16.3888154,75.8078155 20.4041205,73.7618672 22.2849277,73.1348155 L22.2850675,73.1348155 Z" id="Fill-3"></path>
        </g>
    </g>
</svg>