<?xml version="1.0" encoding="UTF-8"?>
<svg width="232px" height="294px" viewBox="0 0 232 294" version="1.1" xmlns="http://www.w3.org/2000/svg" xmlns:xlink="http://www.w3.org/1999/xlink">
    <!-- Generator: Sketch 48.1 (47250) - http://www.bohemiancoding.com/sketch -->
    <title>icn-groceries</title>
    <desc>Created with Sketch.</desc>
    <defs></defs>
    <g id="Homepage" stroke="none" stroke-width="1" fill="none" fill-rule="evenodd" transform="translate(-243.000000, -971.000000)">
        <path d="M249.347035,1090.61164 C251.972392,1085.62612 257.983076,1081.93047 268.262217,1078.99375 C272.257324,1077.83886 275.922009,1075.75106 278.850753,1072.94633 C280.301608,1071.54846 281.746455,1070.26459 283.260391,1069.0377 C284.422877,1068.07479 285.642436,1067.17188 286.964126,1066.28397 L286.964126,1066.28697 C287.042225,1066.23597 287.117321,1066.18497 287.201429,1066.14298 C289.577467,1064.61912 291.905443,1063.53623 294.122277,1062.92129 C294.152315,1062.91229 294.185357,1062.90629 294.2184,1062.89729 C294.302507,1062.87329 294.395626,1062.84929 294.485741,1062.8283 L294.485741,1062.8223 C295.531078,1062.59132 296.666529,1062.37834 297.883085,1062.37834 C305.840257,1062.37834 313.629215,1069.31968 321.703537,1083.60131 C325.932944,1091.0346 327.395814,1101.69259 325.518414,1111.41166 C325.245064,1112.83952 323.992463,1113.84143 322.574651,1113.84143 C322.421455,1113.84143 322.262251,1113.82943 322.109055,1113.80543 L320.93155,1113.64045 C318.282163,1113.1185 316.19149,1112.35057 314.440251,1111.27967 L310.70047,1109.01489 C305.912349,1106.14416 300.310187,1104.92628 294.69601,1105.82319 C291.313686,1106.27315 288.108589,1107.37404 285.342052,1109.02389 L283.497694,1110.13378 C280.073316,1112.21558 275.961059,1113.35247 271.626518,1113.40947 C267.526276,1113.48146 263.365957,1112.42256 259.689257,1110.28377 L252.525098,1105.98518 C251.849234,1105.61321 251.179378,1105.35224 250.626671,1105.25925 C249.380078,1105.05227 248.397822,1104.09536 248.160519,1102.85648 C247.22332,1097.90095 247.610816,1093.89633 249.347035,1090.61164 M284.101466,1045.85592 L285.558328,1044.65303 L284.579077,1042.99719 C282.887915,1040.12946 281.99277,1036.84777 281.99277,1033.50609 C281.99277,1023.34606 289.964962,1015.05186 300.14798,1014.6199 L302.908509,1014.50291 L302.268691,1011.80616 C301.965303,1010.62428 301.812107,1009.3794 301.812107,1008.05652 C301.812107,999.714319 308.348464,992.673991 316.690128,992.023053 L318.789812,991.861069 L318.789812,989.353308 C319.012096,982.828931 324.235774,977.80141 330.676007,977.80141 C334.62005,977.80141 337.347536,979.742225 338.624168,980.900115 L340.210196,982.327978 L341.736147,980.828121 C344.097165,978.554339 347.164086,977.48944 350.363176,977.879403 C354.41836,978.32636 357.950876,981.350072 359.149408,985.399685 C359.548919,986.800551 359.669073,988.090428 359.524888,989.380305 L359.248535,991.95406 L361.876895,991.95406 C371.047619,991.95406 378.728438,999.120376 379.365252,1008.2695 L379.482402,1009.78136 L380.915234,1010.29131 C390.383338,1013.62699 396.631326,1022.59014 396.457103,1032.59718 C396.388015,1036.91677 394.991229,1041.11637 392.416938,1044.73402 C391.927312,1045.42096 391.176352,1045.87091 390.341284,1045.9729 C389.497205,1046.07489 388.665142,1045.82592 388.019316,1045.28297 C384.685053,1042.44524 380.978315,1040.51043 378.001509,1038.95057 C377.127392,1038.51862 376.256278,1038.05366 375.400183,1037.52871 C374.502035,1037.09375 373.703014,1036.00186 373.435672,1034.65798 C373.16833,1032.82816 373.73906,1031.00433 374.895538,1029.73245 C376.532631,1027.82764 377.214503,1025.14589 376.670808,1022.60513 L376.036998,1019.70741 C375.595433,1017.65261 374.264732,1015.78679 372.37832,1014.5749 C370.488905,1013.36602 368.227013,1012.93106 366.187406,1013.38701 L364.715524,1013.71998 C364.616397,1013.74398 364.517271,1013.76198 364.418144,1013.77398 L333.962209,1020.43034 C329.50451,1021.40225 326.662877,1025.82083 327.630114,1030.2844 L328.26092,1033.12813 C328.843665,1035.72288 330.642965,1037.90067 333.070068,1038.93858 C334.740203,1039.6795 335.950751,1040.90939 336.452392,1042.34025 C337.143275,1044.11008 336.284177,1045.48395 335.911701,1046.08089 L335.289906,1046.91481 C334.914426,1047.40077 334.523927,1047.90472 334.163466,1048.40867 C333.502621,1049.24859 332.895845,1050.00752 332.35215,1050.75445 C332.349146,1050.76045 332.153897,1051.01542 332.150893,1051.01842 C331.985682,1051.2464 331.820471,1051.45638 331.64024,1051.65436 C331.429971,1051.93933 331.228714,1052.22431 331.024453,1052.51228 L330.381631,1053.40919 C330.141324,1053.79016 329.928051,1054.11413 329.696756,1054.4081 C329.363329,1054.91805 329.062945,1055.428 328.768569,1055.97995 L328.098713,1057.17084 C327.849394,1057.60279 327.654144,1058.04375 327.455891,1058.48171 L327.074403,1059.30963 C326.930219,1059.5916 326.864134,1059.73259 326.834096,1059.83758 C326.801054,1059.95157 326.762004,1060.06256 326.716946,1060.17655 C326.257359,1061.28344 325.89089,1062.36634 325.63256,1063.39824 C325.617541,1063.54523 325.542445,1063.93819 325.506399,1064.07918 C325.263087,1065.07508 325.103884,1066.01099 325.019776,1066.90491 C324.986734,1067.19288 324.977723,1067.39386 324.965707,1067.58884 C324.953692,1067.84382 324.938673,1068.09579 324.911638,1068.35077 C324.866581,1068.87572 324.821523,1069.37367 324.821523,1069.91362 C324.821523,1071.1915 324.004478,1072.33439 322.790927,1072.75135 C322.47252,1072.85934 322.142098,1072.91333 321.817683,1072.91333 C320.907519,1072.91333 320.02439,1072.49937 319.447653,1071.75544 L318.543497,1070.64555 C318.327221,1070.37857 318.116952,1070.1146 317.882652,1069.81163 L317.729456,1069.63165 C317.053592,1068.82772 316.389744,1068.0358 315.716884,1067.31887 C315.389465,1066.9559 315.101096,1066.66193 314.830751,1066.38596 L314.581432,1066.12798 C313.827468,1065.37805 313.040462,1064.63712 312.298513,1064.00418 L311.796872,1063.55123 C311.664703,1063.43124 311.532534,1063.30825 311.400365,1063.20326 C310.421113,1062.41134 309.405815,1061.6824 308.30641,1060.98347 C308.15021,1060.88148 308.036064,1060.82749 307.918914,1060.76749 L307.357196,1060.46152 C306.717378,1060.09856 306.011476,1059.71459 305.320593,1059.45662 C304.785909,1059.22564 304.449479,1059.09365 304.073999,1058.97366 C303.437185,1058.74269 302.863452,1058.5837 302.316753,1058.43072 L300.694679,1058.04075 C299.727442,1057.87877 298.790244,1057.93576 297.750916,1057.79178 L297.720877,1057.79178 C293.494474,1057.79178 289.162937,1059.27363 284.473942,1062.31534 C283.716974,1062.8073 282.779776,1062.93329 281.923682,1062.65731 C281.064584,1062.38434 280.3737,1061.7394 280.043278,1060.90248 C279.415475,1059.30363 279.094064,1057.65979 279.094064,1056.00395 C279.220226,1051.99033 281.046561,1048.32468 284.101466,1045.85592 M404.861848,1039.27454 C404.864851,1039.27154 404.861848,1039.26554 404.864851,1039.26254 C406.739248,1035.80087 408.772847,1031.50828 410.926601,1026.96672 L411.61448,1025.52086 C419.727852,1008.2935 430.845065,984.688753 444.413411,977.720418 C451.286197,974.171757 457.603273,975.047673 462.68577,980.252176 C468.191809,985.87364 470.576859,994.722795 470.462713,1000.56624 C469.657683,1032.09623 463.899322,1065.21907 453.349835,1099.03484 C453.130555,1099.80577 452.62591,1101.26663 451.93803,1103.23144 L451.151024,1105.50522 C450.880679,1106.29115 450.291926,1106.92409 449.534958,1107.26605 L440.078869,1111.53465 C437.411459,1113.16049 433.966055,1114.1114 430.322397,1114.1714 C426.645696,1114.0994 423.218315,1113.15449 420.292574,1111.43566 L416.501728,1109.14387 C411.716611,1106.27615 406.114449,1105.06726 400.497268,1105.95218 C397.114944,1106.40214 393.91285,1107.50303 391.146313,1109.15287 L387.409536,1111.41766 C385.111599,1112.77053 382.432173,1113.61345 379.404302,1113.94042 C378.44007,1114.04841 377.463822,1113.67044 376.817996,1112.92951 C376.17217,1112.18858 375.928859,1111.18068 376.169166,1110.23277 C376.253274,1109.8938 376.361412,1109.57283 376.466547,1109.26686 L376.571681,1108.96089 C378.013524,1104.12235 379.60556,1099.11283 381.317749,1094.05232 C381.78034,1092.63645 382.281981,1091.22059 382.792634,1089.78972 L383.183133,1088.67983 C384.781176,1084.19226 386.174958,1080.49961 387.574748,1077.04994 C388.193539,1075.44209 388.830353,1073.80425 389.464163,1072.2024 C393.843762,1061.25345 399.025386,1050.1785 404.861848,1039.27454 M378.355962,1088.35286 L376.926134,1092.46547 C376.706854,1093.1614 376.430501,1093.92033 376.142132,1094.68525 L375.856767,1095.45318 C374.360855,1100.03674 372.888973,1104.77029 371.462149,1109.49184 C371.194807,1110.38276 370.533962,1111.09369 369.665853,1111.42666 C369.314403,1111.55864 368.950939,1111.62764 368.587474,1111.62764 C368.046783,1111.62764 367.506092,1111.48065 367.031485,1111.19268 L363.54703,1109.08388 C358.818986,1106.25215 353.237851,1104.98627 347.725804,1105.89219 L345.112463,1106.36614 C343.580505,1106.69611 342.114631,1107.17006 340.732864,1107.791 C339.900801,1108.16297 338.948583,1108.13897 338.131539,1107.72201 C337.317498,1107.30805 336.740761,1106.54612 336.557526,1105.65521 L335.620328,1101.05965 C335.431086,1100.14173 335.683409,1099.18783 336.3022,1098.48589 C336.917987,1097.78096 337.846174,1097.403 338.768353,1097.46599 L340.093046,1097.56798 C349.966669,1098.35091 357.287027,1095.99913 366.430717,1089.46575 C369.260334,1087.47694 371.774548,1085.92309 374.141574,1084.69621 C375.228965,1084.13226 376.56267,1084.28225 377.490856,1085.09517 C378.422047,1085.90209 378.764484,1087.19197 378.355962,1088.35286 M337.578832,1034.80797 C336.578553,1034.80797 335.581278,1034.517 334.725184,1033.95305 C333.547679,1033.18212 332.733638,1031.96124 332.487323,1030.60837 C332.201958,1029.40549 332.466296,1027.95662 333.244291,1026.78674 C333.995251,1025.65884 335.133706,1024.86692 336.449388,1024.56095 L366.154363,1018.10556 C368.713635,1017.57761 371.185796,1019.45843 371.864664,1022.00819 C372.255163,1023.75402 371.759529,1025.22088 371.13473,1026.1118 C370.386774,1027.25469 369.197254,1028.05561 367.845525,1028.31659 L338.687249,1034.68798 C338.320781,1034.77197 337.951308,1034.80797 337.578832,1034.80797 M337.70199,1051.39639 C337.704993,1051.39039 337.744043,1051.34239 337.747047,1051.33639 C338.122527,1050.86544 338.479984,1050.39748 338.82843,1049.93853 L339.525321,1049.04161 C339.801674,1048.64865 340.117077,1048.21969 340.378411,1047.74873 C341.528882,1045.63994 341.396713,1043.43515 341.08131,1041.95929 C340.735868,1040.34544 341.763181,1038.75559 343.379247,1038.40463 L365.427434,1033.59909 C367.013462,1033.23012 368.611505,1034.24702 368.986985,1035.83687 C369.110142,1036.35582 369.212273,1036.83278 369.416534,1037.30973 C370.20354,1039.20855 371.534241,1040.69041 373.375595,1041.74031 L374.201651,1042.18127 C374.697285,1042.45424 375.204934,1042.73021 375.715587,1042.98519 L376.379435,1043.34515 C376.866057,1043.61213 377.367699,1043.8911 377.86934,1044.13708 L380.984322,1045.94591 C381.633152,1046.33287 382.260954,1046.71983 382.837692,1047.17279 C383.426444,1047.58975 384.090293,1048.0847 384.70608,1048.64265 L386.093854,1049.87253 C386.73968,1050.45748 387.298394,1051.06042 387.836082,1051.66936 C388.962522,1053.00423 389.797589,1054.19812 390.446419,1055.38901 C390.893991,1056.20793 390.933041,1057.18883 390.551553,1058.04675 C388.445861,1062.7683 386.307127,1067.79882 384.198431,1072.99433 L383.249218,1075.3101 C382.891761,1076.19802 382.131789,1076.86096 381.203603,1077.09493 C375.667525,1078.5018 370.335709,1081.17454 363.92251,1085.76711 C356.650213,1090.91162 350.609491,1093.1434 343.02179,1093.1434 C340.78393,1093.1434 338.410896,1092.94842 335.833601,1092.57946 C334.596019,1092.40247 333.59574,1091.47256 333.328398,1090.25468 L330.102274,1075.57108 C327.555018,1064.31915 332.943907,1057.45281 337.70199,1051.39639 M459.132228,1112.94151 L450.111696,1239.08847 C449.486897,1251.06633 439.604263,1260.44044 427.600918,1260.44044 L279.193191,1260.44044 C267.198857,1260.44044 257.292193,1251.00634 256.634352,1238.96249 L247.848119,1114.18039 C247.770019,1113.0645 248.316718,1112.0026 249.271939,1111.41766 C250.224157,1110.83271 251.422689,1110.82371 252.383918,1111.39666 L256.982797,1114.1384 C261.275285,1116.69715 266.240632,1118.04703 271.356172,1118.04703 C271.54241,1118.04703 271.719637,1118.05002 271.89386,1118.05002 C276.985369,1118.05002 281.932693,1116.69715 286.273242,1114.1324 L288.108589,1113.0285 C290.98026,1111.29167 294.428668,1110.33776 298.072326,1110.28077 C301.746023,1110.34976 305.176408,1111.29767 308.102149,1113.01351 L311.889991,1115.30529 C314.638505,1116.97613 317.816568,1118.04403 321.337068,1118.48198 C323.373672,1118.75196 325.067838,1118.73996 326.804057,1118.64697 L326.867138,1118.64397 C326.963261,1118.61097 327.05638,1118.57797 327.09543,1118.56598 C327.239614,1118.52998 327.386802,1118.49998 327.536994,1118.47898 C330.645969,1118.10402 333.718898,1117.09912 336.416346,1115.57526 C336.587565,1115.48227 336.764791,1115.40428 336.945022,1115.34428 C337.164302,1115.27229 337.386586,1115.2183 337.602863,1115.1733 L341.04226,1113.0795 C343.922943,1111.33667 347.371351,1110.38576 351.015009,1110.32576 C354.688706,1110.39776 358.119091,1111.34267 361.044831,1113.0585 L364.832674,1115.35328 C367.824499,1117.13511 371.299942,1118.22401 375.132842,1118.57497 C375.379157,1118.60797 375.75764,1118.65897 375.982928,1118.71296 C376.024982,1118.71896 376.067036,1118.72196 376.103082,1118.72796 L376.980203,1118.72796 C377.938428,1118.72796 378.848592,1118.67397 379.803813,1118.57797 C381.152537,1118.47298 382.447192,1118.20301 383.546598,1117.94803 L383.922078,1117.86104 C386.655572,1117.15611 388.593049,1116.37618 390.263184,1115.35028 L394.033004,1113.0675 C396.913687,1111.32467 400.359091,1110.37376 404.002749,1110.31376 C407.67945,1110.38576 411.109835,1111.33067 414.032572,1113.0465 L417.823418,1115.34128 C420.592958,1117.00312 423.771021,1118.10102 427.012165,1118.51798 C432.806572,1119.43589 438.180443,1118.26 442.881452,1115.52727 C442.974571,1115.47027 443.073698,1115.42228 443.169821,1115.37728 L453.238693,1110.91671 C453.424931,1110.76372 453.67425,1110.58074 453.995661,1110.42175 L454.857763,1110.01379 C455.825,1109.56383 456.960451,1109.65683 457.834569,1110.25677 C458.714694,1110.85671 459.207324,1111.87961 459.132228,1112.94151 M243.002925,1111.74163 C242.966879,1110.32576 243.264259,1109.10188 243.880046,1108.10897 C244.300584,1107.42204 244.432753,1106.59712 244.243511,1105.81419 C242.534326,1098.86986 242.891783,1093.06541 245.303867,1088.55084 C249.500231,1080.6436 258.938297,1077.05894 266.691208,1074.82115 C267.682476,1074.53918 268.451459,1073.76825 268.742831,1072.78435 C269.0312,1071.80044 268.7969,1070.73854 268.121036,1069.96461 C265.471649,1066.9379 259.98063,1061.86239 252.951644,1061.86239 L252.422968,1061.86239 C251.185386,1061.86239 250.179099,1060.88148 250.134042,1059.6336 C250.113015,1059.04266 250.329291,1058.47271 250.746825,1058.03475 C251.17337,1057.5848 251.750108,1057.32382 252.374906,1057.30282 C252.603198,1057.29382 252.83149,1057.29082 253.059782,1057.29082 C261.377415,1057.29082 267.895748,1062.99928 271.085827,1066.46995 C272.086105,1067.55584 273.726202,1067.75383 274.96078,1066.9379 C276.192355,1066.12198 276.645935,1064.53213 276.030147,1063.18826 C275.050896,1061.05546 274.555262,1058.70669 274.555262,1056.20193 C274.555262,1052.13732 275.952048,1048.1507 278.4963,1044.977 C279.160149,1044.14908 279.334372,1043.03318 278.958892,1042.04328 C277.898536,1039.23255 277.357845,1036.37382 277.357845,1033.54209 C277.357845,1022.83011 284.585084,1013.495 294.936317,1010.83126 C296.255003,1010.49229 297.180186,1009.3074 297.189197,1007.94253 C297.237259,998.745411 303.5273,990.613188 312.484752,988.171421 C313.548111,987.880448 314.368159,987.02853 314.617478,985.954632 C316.356701,978.491345 322.935111,973.277842 330.618934,973.277842 C333.37646,973.277842 336.10695,973.985775 338.522038,975.323647 C339.447221,975.839598 340.579668,975.821599 341.498844,975.29365 C344.331465,973.640807 347.572608,972.956873 350.88284,973.361834 C356.752344,974.072766 361.813814,978.395354 363.48395,984.103809 C363.616119,984.553766 363.757299,985.054718 363.847414,985.501675 C364.084718,986.683563 365.006897,987.607474 366.187406,987.850451 C374.868504,989.629282 381.654179,996.366638 383.471502,1005.01481 C383.666752,1005.93273 384.276531,1006.70665 385.123614,1007.10861 C392.876525,1010.78626 398.382564,1017.7486 400.23293,1026.21079 C400.509283,1027.47367 401.563631,1028.41858 402.849275,1028.55657 C404.170964,1028.69155 405.363489,1027.99262 405.901176,1026.81673 C406.288672,1025.97081 406.706205,1025.0919 407.126743,1024.20398 L407.421119,1023.58304 C416.312486,1004.75684 427.378633,981.326074 442.307719,973.598811 C450.874671,969.186233 459.489685,970.434114 465.944937,977.027484 C471.553107,982.813932 475.187753,992.329024 474.992504,1000.68623 C474.157436,1032.25521 468.438124,1065.42005 457.993772,1099.25982 C457.735442,1100.10274 457.858599,1101.02065 458.33621,1101.76158 C458.810817,1102.50551 459.591815,1103.00046 460.468936,1103.11745 C461.165827,1103.21044 462.133064,1103.46842 462.823947,1104.22134 C463.562892,1104.99527 463.956395,1106.04517 463.899322,1107.05907 L454.638483,1239.38844 C453.917561,1253.74807 442.01935,1265 427.549852,1265 L279.133114,1265 C264.70567,1265 252.804455,1253.70008 252.038476,1239.22046 L243.002925,1111.74163 Z M441.358205,1077.37661 C441.090863,1076.82466 440.625268,1076.4137 440.051535,1076.21572 C438.831975,1075.80176 437.591389,1076.4287 437.167848,1077.67358 C435.011091,1084.06297 428.006136,1087.52164 421.577918,1085.36484 C419.793637,1084.7649 417.976313,1084.47993 416.189028,1084.47993 C409.139016,1084.47993 402.545586,1088.90451 400.157534,1095.89684 C399.956276,1096.47278 399.992322,1097.06973 400.250653,1097.60968 C400.520998,1098.16762 400.992601,1098.58458 401.572342,1098.78556 L401.608388,1098.80056 C401.767592,1098.85456 401.929799,1098.89055 402.278245,1098.89055 C403.272516,1098.89055 404.143629,1098.27261 404.453025,1097.3547 C406.618794,1090.94731 413.614737,1087.50064 420.045959,1089.64844 C428.865234,1092.61515 438.474518,1087.8816 441.466343,1079.11644 C441.667601,1078.5375 441.628551,1077.92555 441.358205,1077.37661 Z M453.89293,1040.59202 C453.622584,1040.03407 453.14197,1039.62011 452.544205,1039.41613 C451.964464,1039.21815 451.357688,1039.25415 450.820001,1039.52112 C450.261287,1039.78809 449.843753,1040.27105 449.642496,1040.86799 C447.479731,1047.26338 440.483787,1050.70705 434.052565,1048.55926 C432.250261,1047.95631 430.405903,1047.65334 428.579569,1047.65334 C426.026305,1047.65334 423.503079,1048.24129 421.178107,1049.40518 C417.152961,1051.36699 414.12509,1054.80766 412.626174,1059.11225 C412.433928,1059.6612 412.472978,1060.26414 412.734312,1060.79809 C413.007661,1061.35604 413.488276,1061.776 414.08604,1061.97698 L414.140109,1061.99497 C414.299313,1062.04897 414.46152,1062.08497 414.809965,1062.08497 C415.804236,1062.08497 416.67535,1061.46703 416.984746,1060.54911 C418.012059,1057.4894 420.213874,1054.98164 423.187676,1053.48779 C426.122427,1052.01793 429.45669,1051.78395 432.586691,1052.84585 C441.384939,1055.80057 451.006239,1051.07902 453.998064,1042.31085 C454.199321,1041.73791 454.157268,1041.13197 453.89293,1040.59202 Z M429.457291,1023.74503 C431.211533,1018.58552 436.825711,1015.83478 442.001327,1017.57461 C445.626962,1018.7955 449.561993,1018.54952 453.06447,1016.86968 C456.500864,1015.17484 459.078158,1012.22912 460.294714,1008.59347 C460.498975,1007.99653 460.459925,1007.38459 460.189579,1006.83564 C459.925241,1006.28669 459.456642,1005.87273 458.885913,1005.67775 C458.324195,1005.47977 457.717419,1005.51577 457.179731,1005.78574 C456.621017,1006.05571 456.203483,1006.53567 456.002226,1007.13261 C455.161151,1009.63737 453.433943,1011.60518 451.015851,1012.81107 C448.564718,1013.99896 445.882289,1014.16394 443.413132,1013.26703 C441.911212,1012.76007 440.373246,1012.5201 438.85931,1012.5201 C432.85163,1012.5201 427.186388,1016.30274 425.128757,1022.29316 C424.744266,1023.43905 425.402107,1024.77093 426.576608,1025.17589 L426.612654,1025.18789 C426.783873,1025.25088 427.000149,1025.28088 427.28251,1025.28088 C428.276782,1025.28088 429.147895,1024.66294 429.457291,1023.74503 Z" id="icn-groceries" fill="#FF3829"></path>
    </g>
</svg>