<?xml version="1.0" encoding="UTF-8"?>
<svg width="79px" height="85px" viewBox="0 0 79 85" version="1.1" xmlns="http://www.w3.org/2000/svg" xmlns:xlink="http://www.w3.org/1999/xlink">
    <!-- Generator: Sketch 48.2 (47327) - http://www.bohemiancoding.com/sketch -->
    <title>icn-groceries</title>
    <desc>Created with Sketch.</desc>
    <defs></defs>
    <g id="Homepage-V2" stroke="none" stroke-width="1" fill="none" fill-rule="evenodd" transform="translate(0.000000, -5109.000000)">
        <g id="Group" transform="translate(0.000000, 5109.000000)" fill="#FF3829">
            <path d="M2.14565563,40.6648692 C3.03340877,38.9704203 5.06516672,37.7131828 8.5404532,36.7150083 C9.89067637,36.3226741 11.1300149,35.6128007 12.119863,34.6595032 C12.6107304,34.1842144 13.0988932,33.7470031 13.6107204,33.3301904 C14.0035495,33.0024519 14.4159862,32.6957921 14.8629053,32.3938919 L14.8629053,32.3952518 C14.8892742,32.3775729 14.9142909,32.3605741 14.9426882,32.346295 C15.7459256,31.828169 16.532936,31.4603131 17.2827595,31.2508869 C17.2929013,31.2474871 17.3037194,31.2454472 17.3152135,31.2427274 C17.3436108,31.2345679 17.3747126,31.2264085 17.4051382,31.218929 L17.4051382,31.2168891 C17.758752,31.1386942 18.1427914,31.066619 18.5538759,31.066619 C21.2441804,31.066619 23.8770141,33.4260641 26.6065339,38.2816255 C28.0365399,40.8090197 28.5307878,44.4325019 27.8965819,47.7364051 C27.8039526,48.2218933 27.3806979,48.5625509 26.9013247,48.5625509 C26.8499392,48.5625509 26.7958491,48.5584712 26.7437874,48.5503117 L26.3455493,48.4945554 C25.4503588,48.317087 24.7431312,48.0553042 24.1515212,47.6915281 L22.887166,46.9218186 C21.2685209,45.9460826 19.3746926,45.5313098 17.4768076,45.8359298 C16.3328027,45.9895998 15.2496493,46.3642552 14.3145673,46.9245384 L13.6911793,47.3019137 C12.5329759,48.0097472 11.1428613,48.3959619 9.67769675,48.4156806 C8.29163891,48.4408389 6.8852973,48.0797826 5.64190201,47.3529103 L3.22001948,45.8916862 C2.99148897,45.7652145 2.76566296,45.6761403 2.57837612,45.6448624 C2.15714977,45.574827 1.82449588,45.2491283 1.74471304,44.828236 C1.42761006,43.1433065 1.55877846,41.7820359 2.14565563,40.6648692 Z M13.8946932,25.4488276 L14.3875889,25.0401744 L14.0562873,24.4771714 C13.484961,23.5021153 13.1820566,22.3863085 13.1820566,21.2501031 C13.1820566,17.7959298 15.877094,14.9768347 19.3199264,14.8292844 L20.25298,14.789847 L20.0366197,13.8732672 C19.9338486,13.4714135 19.8824631,13.0478013 19.8824631,12.5983508 C19.8824631,9.76225691 22.0920421,7.368134 24.9121627,7.1471485 L25.6220948,7.09207212 L25.6220948,6.23940807 C25.6971447,4.02071365 27.4625091,2.31198577 29.6403102,2.31198577 C30.9736303,2.31198577 31.8951897,2.97154249 32.3272341,3.36591662 L32.8634018,3.8507248 L33.3792858,3.34075827 C34.1771142,2.56832895 35.2142911,2.20591273 36.2954162,2.33850403 C37.6665993,2.49013408 38.8606374,3.51822662 39.2656368,4.89581623 C39.4008619,5.371785 39.4414295,5.80967626 39.3927484,6.24892744 L39.299443,7.12335006 L40.1878723,7.12335006 C43.287909,7.12335006 45.8849081,9.56031016 46.0999161,12.6704261 L46.1398075,13.1844723 L46.6245897,13.357861 C49.824693,14.4920266 51.9369099,17.5389066 51.8780869,20.9414034 C51.8550987,22.409427 51.3831629,23.8380133 50.5123129,25.0680526 C50.3473382,25.3012773 50.0931149,25.4542672 49.8111704,25.488945 C49.5258454,25.5229427 49.2445771,25.4386283 49.0255123,25.2543604 C47.8984106,24.2895037 46.6455496,23.6313069 45.6394744,23.1016216 C45.3433313,22.9547512 45.0492166,22.7963216 44.7598348,22.6181733 C44.4562543,22.4699431 44.185804,22.0986874 44.0952032,21.6417574 C44.0052784,21.0195982 44.1979743,20.3994789 44.5894511,19.9677073 C45.142522,19.3197098 45.3730809,18.4085696 45.1891747,17.5443463 L44.9748428,16.5590909 C44.8260951,15.8607767 44.3757954,15.2263784 43.7382087,14.8136454 C43.0992699,14.4029524 42.3345716,14.2554021 41.6449233,14.4104319 L41.1472948,14.5239845 C41.1141646,14.531464 41.0803583,14.5375836 41.0472282,14.5416633 L30.7511849,16.8045548 C29.2441005,17.1356931 28.2833258,18.6370346 28.6105707,20.1553749 L28.8235503,21.1222715 C29.020979,22.0041736 29.6288161,22.744645 30.4496328,23.0975419 C31.0141978,23.3491254 31.4232539,23.7672979 31.5929615,24.253466 C31.8262249,24.8552265 31.5361669,25.3230358 31.4104075,25.5249826 L31.2001324,25.808524 C31.0730207,25.9744331 30.9405001,26.1451019 30.8187975,26.3164507 C30.5956759,26.6020319 30.3901337,26.860415 30.2069036,27.1140383 C30.2055514,27.1160782 30.1399672,27.2031125 30.1386149,27.2037924 C30.0824965,27.2813074 30.0270542,27.3533826 29.9662029,27.4200182 C29.8952096,27.5172519 29.8269209,27.6144855 29.7579561,27.7117191 L29.5409197,28.0170191 C29.4591085,28.1468906 29.3874392,28.2563634 29.3090086,28.3563168 C29.1960956,28.5297054 29.0946767,28.7030941 28.9952862,28.8914417 L28.7687841,29.2953352 C28.6842684,29.4428855 28.6186842,29.5924757 28.5517477,29.7420659 L28.4226077,30.0235674 C28.3739267,30.1187612 28.3516145,30.167038 28.3414726,30.2023957 C28.3299785,30.2411531 28.3171321,30.2792306 28.3015812,30.3173081 C28.1467484,30.6940034 28.0223413,31.0625392 27.935121,31.4133962 C27.929712,31.463033 27.9046954,31.5963042 27.8925251,31.644581 C27.8100378,31.9825189 27.7559477,32.3014179 27.7275504,32.604678 C27.7167324,32.7032716 27.7133518,32.7719471 27.7099711,32.8372228 C27.7059144,32.9242571 27.7005054,33.0099315 27.6917157,33.0969657 C27.6761649,33.2751141 27.660614,33.4444229 27.660614,33.6280109 C27.660614,34.0625024 27.3847546,34.4507569 26.9743463,34.5928676 C26.8668423,34.6295852 26.7552816,34.647944 26.6450731,34.647944 C26.3374358,34.647944 26.0392644,34.5071932 25.843864,34.2542498 L25.5389313,33.8775545 C25.4652336,33.7864405 25.3942404,33.6966864 25.3151337,33.5940131 L25.263072,33.5321372 C25.0352176,33.2587951 24.8100677,32.9895328 24.5828894,32.7461088 C24.4720048,32.6223569 24.3746427,32.5224034 24.2833657,32.4292496 L24.19885,32.3415353 C23.9439506,32.086552 23.6782332,31.8342886 23.4273905,31.6187427 L23.2576829,31.4650728 C23.2130586,31.4242755 23.1684343,31.3827982 23.12381,31.3467606 C22.7925084,31.0774983 22.4497126,30.8293145 22.0778434,30.5926901 C22.0251056,30.5573324 21.9865665,30.5389736 21.946675,30.5185749 L21.7566837,30.4145418 C21.5409996,30.2907899 21.3023272,30.1609184 21.0683877,30.0732042 C20.8878621,29.9950093 20.7735968,29.9494523 20.6471613,29.9093349 C20.4314772,29.8297801 20.2374291,29.7760637 20.0528468,29.724387 L19.5045088,29.5917957 C19.1772639,29.5367194 18.860837,29.5557581 18.5092516,29.5068013 L18.4991097,29.5068013 C17.070456,29.5068013 15.6059675,30.0106483 14.0204526,31.0448604 C13.7648771,31.2121294 13.4477741,31.2549666 13.1590684,31.1611328 C12.8683343,31.0686588 12.6350709,30.8490332 12.522834,30.5648119 C12.3105305,30.0208476 12.2023504,29.4619243 12.2023504,28.8989212 C12.2449463,27.5342508 12.8622491,26.2878925 13.8946932,25.4488276 Z M54.7191674,23.2117744 C54.7205197,23.2104145 54.7191674,23.2083746 54.7205197,23.2070147 C55.3540495,22.0306919 56.0416695,20.5708277 56.7698569,19.027329 L57.0024442,18.5357212 C59.7454864,12.6785855 63.5040696,4.65375211 68.0909069,2.28478756 C70.414075,1.07786675 72.5492802,1.37568721 74.2673158,3.14493112 C76.1286901,5.0562857 76.9353081,8.06508827 76.896769,10.0519179 C76.6249664,20.7707346 74.6777242,32.0321556 71.1111607,43.5288412 C71.037463,43.791304 70.8670793,44.2876714 70.6338159,44.9553876 L70.3680985,45.7284969 C70.2768215,45.9957194 70.0780405,46.2105853 69.8217889,46.3268576 L66.6250662,47.7785624 C65.7237905,48.3306861 64.5588258,48.6543449 63.3269247,48.6747436 C62.0842055,48.6502652 60.9253259,48.3286463 59.9361539,47.7445646 L58.6548956,46.9660157 C57.0369266,45.9902797 55.1430983,45.5795867 53.2445371,45.8808069 C52.1005323,46.0337969 51.018055,46.4077723 50.082973,46.9687355 L48.8199701,47.738445 C48.0424254,48.1987748 47.1364169,48.485036 46.1134386,48.5958687 C45.7868698,48.6332663 45.4569205,48.5040748 45.239208,48.2524913 C45.0208193,48.0009078 44.9390081,47.6582103 45.0201432,47.3359114 C45.0485405,47.220999 45.0843752,47.1108462 45.1202098,47.007493 L45.1560445,46.9034598 C45.6428551,45.2586477 46.1810512,43.5553595 46.760491,41.8350724 C46.916676,41.353664 47.0857075,40.8722555 47.2587957,40.3854075 L47.3906402,40.0080323 C47.9308647,38.4822124 48.4028005,37.2270147 48.8754124,36.0547717 C49.0843352,35.5074076 49.3000194,34.9512041 49.5143512,34.4065598 C50.9950667,30.6838041 52.7462324,26.9182112 54.7191674,23.2117744 Z M45.7584726,39.8971995 L45.2757188,41.2951878 C45.2013449,41.5318123 45.1080396,41.7895154 45.0106775,42.0499383 L44.9139915,42.3110411 C44.4082494,43.8694989 43.9106208,45.4782733 43.4285431,47.083648 C43.3379423,47.3869081 43.1141447,47.6282922 42.8213822,47.7411648 C42.7023841,47.7867218 42.5793292,47.8098403 42.4569504,47.8098403 C42.2737203,47.8098403 42.0911664,47.7602036 41.9302484,47.66229 L40.7524373,46.9449371 C39.154076,45.9821203 37.2676851,45.5517085 35.4036063,45.8604082 L34.5205861,46.0208777 C34.0026737,46.1330703 33.5070735,46.2942198 33.0398706,46.5056859 C32.7586023,46.6314776 32.4367664,46.6239981 32.1609071,46.4825674 C31.8850478,46.3418166 31.6903236,46.0827536 31.62812,45.7788136 L31.3116931,44.217636 C31.2474612,43.9055365 31.332653,43.5805178 31.542252,43.3425335 C31.7504988,43.1025092 32.0642211,42.9739976 32.3759151,42.9957562 L32.8235104,43.0304339 C36.1615433,43.2962965 38.6361637,42.496669 41.7274107,40.2752547 C42.6841287,39.5993791 43.5340188,39.0710537 44.3338756,38.6535611 C44.701688,38.4624937 45.1526639,38.5134903 45.4663862,38.7895522 C45.7814608,39.0642542 45.8964022,39.5021455 45.7584726,39.8971995 Z M31.9736203,21.693434 C31.6355574,21.693434 31.2981706,21.5941605 31.0087888,21.4024131 C30.6112268,21.1399503 30.3353675,20.7251775 30.2522041,20.2648478 C30.1561942,19.8561946 30.2454428,19.3639069 30.5084557,18.966133 C30.7620029,18.5819582 31.1473946,18.3133758 31.5916092,18.2093426 L41.6341053,16.0144467 C42.4988702,15.8349384 43.3345617,16.4747764 43.5644444,17.3410396 C43.6969651,17.9346407 43.5292859,18.4337279 43.3176585,18.7363081 C43.0647875,19.1245626 42.6624926,19.3972247 42.2061077,19.4862988 L32.348194,21.6519567 C32.2244629,21.6805149 32.0993797,21.693434 31.9736203,21.693434 Z M32.0155401,27.332984 C32.0162162,27.3309441 32.0297387,27.3139452 32.0304148,27.3119053 C32.1575265,27.1521158 32.278553,26.9936862 32.3961989,26.8372965 L32.6314907,26.5319965 C32.7254721,26.3987253 32.8316239,26.2525349 32.9201964,26.0920654 C33.3089687,25.3760724 33.2643444,24.6260816 33.1575165,24.1242745 C33.0412229,23.5755505 33.3880754,23.034986 33.934385,22.9153138 L41.3886717,21.282061 C41.9241633,21.1569492 42.4643878,21.5016866 42.5914994,22.0422511 C42.6327431,22.2190395 42.6679016,22.3808689 42.7368665,22.5440582 C43.0025839,23.1893359 43.4528837,23.6925028 44.0749194,24.0494794 L44.3541593,24.1997496 C44.5218385,24.2929034 44.6935745,24.3867373 44.8659865,24.4730916 L45.0904603,24.5954836 C45.2547589,24.6859177 45.4244664,24.7811114 45.594174,24.8647459 L46.647578,25.4794256 C46.8666427,25.610657 47.0796223,25.7432483 47.2743465,25.8962382 C47.4731275,26.0383489 47.6976013,26.2062979 47.905848,26.3966854 L48.3750793,26.814858 C48.5934679,27.0134049 48.782107,27.2187515 48.9639849,27.4254579 C49.3446437,27.8789881 49.6265881,28.2849215 49.846329,28.6901749 C49.9977812,28.9682767 50.0106276,29.3021347 49.8814875,29.5938356 C49.1695271,31.1985303 48.4467486,32.9092981 47.7341121,34.6751422 L47.4136285,35.4632105 C47.2926019,35.7644307 47.034998,35.9901759 46.7212757,36.0697307 C44.8504356,36.5477393 43.0478843,37.4561597 40.879549,39.0180172 C38.4211557,40.7668625 36.3785797,41.5256927 33.8133585,41.5256927 C33.0574499,41.5256927 32.2548886,41.459737 31.3840386,41.3339453 C30.9655167,41.2741092 30.6274539,40.9579299 30.536853,40.5431571 L29.4462621,35.5509247 C28.5848779,31.7261757 30.4070369,29.3918889 32.0155401,27.332984 Z M70.4539665,85 C70.4539665,85 71.9049324,64.5884194 73.0665164,48.256571 C73.0915331,47.8955147 72.9252062,47.5480575 72.6277108,47.3433909 C72.3322439,47.1394043 71.9482044,47.1088063 71.6209595,47.2611163 L71.3302255,47.3998272 C71.2213692,47.4535437 71.1375296,47.5160996 71.0739738,47.5677762 C68.7609475,48.6006284 67.5932783,49.1221542 67.5723184,49.1357533 C65.9834228,50.0645724 64.1666729,50.4643861 62.2079365,50.1522866 C61.1119366,50.0108559 60.0382489,49.6375604 59.1018147,49.0725175 L57.8198802,48.2926086 C56.8313844,47.708527 55.6725048,47.388268 54.4291095,47.3637896 C53.1972083,47.3835083 52.0329197,47.7064871 51.0586225,48.3000882 L49.7841254,49.0752373 C49.2202365,49.4247344 48.5650706,49.689237 47.5136951,49.9584993 C47.1418259,50.0455336 46.7043725,50.1373276 46.2486637,50.1726853 C45.9247995,50.2053231 45.6171623,50.2243619 45.2939742,50.2243619 C45.0789662,50.222322 44.9667293,50.2202822 44.9565874,50.2189222 C44.8808613,50.1998835 44.7523974,50.1828846 44.6692339,50.1713254 C43.373777,50.0530131 42.1986704,49.6824374 41.1871862,49.0765972 L39.906604,48.2966884 C38.917432,47.7126067 37.7578763,47.3923477 36.5158332,47.3671894 C35.2839321,47.388268 34.1182912,47.7105668 33.1446701,48.3034879 L31.9817338,49.0154012 C31.9087122,49.0310402 31.8336622,49.048719 31.5807912,49.1520722 C30.6686975,49.6701982 29.6294922,50.0115359 28.5787928,50.1393675 C28.5280833,50.146167 28.47805,50.1563663 28.3313307,50.1964837 C27.7437774,50.2277617 27.171775,50.2318414 26.4828029,50.1407274 C25.2928215,49.9918171 24.2184576,49.628721 23.2887847,49.0602783 L22.0088786,48.2810494 C21.0197066,47.6976477 19.8601509,47.3753488 18.6181079,47.3522303 C17.3862067,47.3712691 16.2205659,47.6956078 15.2496493,48.286489 L14.6289658,48.6618244 C13.1617729,49.5335272 11.4890377,49.993857 9.58641977,49.9924971 C7.85689004,49.9924971 6.17806974,49.5335272 4.72710383,48.6638643 L3.17269068,47.7316455 C2.84747418,47.5364983 2.44247484,47.5392181 2.11996285,47.738445 C1.79745085,47.936992 1.61286852,48.2987282 1.6385613,48.6774634 L4.18147033,85 L2.61759142,85 C2.61759142,85 1.163921,64.349755 0.000984672008,47.8485978 C-0.0111855919,47.3671894 0.0895571484,46.9510567 0.297803887,46.6137988 C0.439790299,46.3798942 0.4844146,46.0997525 0.420182652,45.83389 C-0.157228759,43.4724049 -0.0368783713,41.4991744 0.779205438,39.9645151 C2.19771731,37.2766515 5.38835484,36.0574915 8.00901834,35.2959415 C8.34437672,35.2007477 8.60400902,34.9382849 8.70272338,34.6044268 C8.8000855,34.2698888 8.72097878,33.9081525 8.49244827,33.6456897 C7.59725774,32.6162373 5.74061637,30.8911905 3.18553707,30.8911905 C2.76701521,30.8911905 2.42692395,30.5573324 2.41204918,30.1330402 C2.4046118,29.9324534 2.47763338,29.7386661 2.61894367,29.5897559 C2.76363458,29.436086 2.95835881,29.3476918 3.40054506,29.3368125 C6.21255216,29.3368125 8.41604606,31.2774051 9.49514279,32.4578077 C9.83320568,32.8270235 10.3876288,32.8936591 10.8047984,32.6162373 C11.2212919,32.3388155 11.3740963,31.798251 11.1665257,31.3413209 C10.8352241,30.6164885 10.6675449,29.8182209 10.6675449,28.9662368 C10.6675449,27.5845675 11.1401568,26.2294164 12.0001888,25.1503272 C12.2246625,24.8688257 12.2834855,24.4894105 12.1563738,24.1528326 C11.7980272,23.1974953 11.6147971,22.2251591 11.6147971,21.2630223 C11.6147971,17.6205013 14.0583156,14.4464695 17.5579426,13.5414489 C18.0035095,13.4258565 18.3165558,13.0233229 18.3192603,12.5595934 C18.3354873,9.43247854 20.4619028,6.66777996 23.4902702,5.83755443 C23.8499691,5.7389609 24.1271807,5.44929991 24.2110203,5.08416387 C24.7992497,2.54657038 27.0230274,0.773926696 29.6207026,0.773926696 C30.55308,0.773926696 31.4759917,1.0146309 32.2927516,1.46952105 C32.6051217,1.64494954 32.9884851,1.63882994 33.2988268,1.45932172 C34.2562209,0.897678576 35.3522208,0.665133835 36.4712089,0.802484823 C38.4556381,1.04386898 40.1669124,2.51393252 40.7314774,4.45452519 C40.7754256,4.6081951 40.8241067,4.77818395 40.8538562,4.929814 C40.9343152,5.33166763 41.2466853,5.64580702 41.6449233,5.72808162 C44.5799853,6.33324191 46.8740801,8.62401159 47.4880023,11.5641387 C47.5542626,11.8762382 47.760481,12.1393809 48.0464822,12.276052 C50.6678218,13.5264899 52.5291961,15.8927346 53.1546124,18.7703058 C53.2485939,19.2000376 53.6049122,19.5202966 54.0389849,19.5678935 C54.4865802,19.6134505 54.888875,19.3754661 55.0707528,18.9763323 C55.2019212,18.6887112 55.3432315,18.3895308 55.5852846,17.8768444 C58.5906636,11.4757445 62.3316675,3.51006716 67.3789464,0.883399513 C70.2747931,-0.616582062 73.187543,-0.192289903 75.3694008,2.04884304 C77.2652575,4.01663392 78.493778,7.25050172 78.4281938,10.0920353 C78.1462494,20.825131 76.2118535,32.1001512 72.6818009,43.6049962 C72.5945807,43.8919374 72.6358243,44.2040369 72.7974184,44.4556204 C72.9576602,44.7085638 73.2220254,44.8765128 73.5181685,44.9166302 C73.7541364,44.9485881 74.0807051,45.0363023 74.3146446,45.2919655 C74.564135,45.5551083 74.6973318,45.9120848 74.6777242,46.2568222 C73.478277,63.4889315 71.9799823,85 71.9799823,85 L70.4539665,85 Z M67.0571106,36.1656044 C66.967862,35.9772567 66.8096485,35.8378659 66.6156004,35.7705503 C66.2038398,35.6297995 65.7846419,35.8426256 65.6413032,36.2662378 C64.9124396,38.4386952 62.543971,39.6143381 60.3709028,38.8813462 C59.7671225,38.6773596 59.1532003,38.5808059 58.5487438,38.5808059 C56.1654005,38.5808059 53.9362138,40.0841873 53.1295957,42.4619912 C53.061307,42.6578184 53.0734773,42.8604451 53.1606975,43.044033 C53.2519745,43.2337406 53.4115402,43.3751713 53.6076167,43.4438468 L53.6191108,43.4492865 C53.6732009,43.4676452 53.7286432,43.4798844 53.8456129,43.4798844 C54.1823236,43.4798844 54.4771144,43.2697782 54.5812378,42.9576787 C55.313482,40.7791017 57.67857,39.6068586 59.8529904,40.3378106 C62.834029,41.3461845 66.0828133,39.7367301 67.0942975,36.7571656 C67.1625862,36.5599785 67.1490637,36.3519122 67.0571106,36.1656044 Z M71.2950669,23.659185 C71.2037899,23.4694775 71.0415198,23.3294067 70.8393581,23.2593713 C70.6432817,23.1927356 70.4377394,23.2042949 70.2565377,23.2954089 C70.0678986,23.3865229 69.9265884,23.5503922 69.8582997,23.7530189 C69.1274077,25.9275162 66.7623197,27.0983994 64.5878992,26.3681273 C63.9787099,26.1634607 63.355322,26.0601075 62.7380191,26.0601075 C61.8739304,26.0601075 61.0220119,26.2600144 60.2356776,26.6550684 C58.8746365,27.3227846 57.850982,28.4929878 57.3445638,29.9555719 C57.2789796,30.1425596 57.2925021,30.3472262 57.3810746,30.5294542 C57.4737038,30.7184818 57.635974,30.8612724 57.8381356,30.9299479 L57.856391,30.9353876 C57.909805,30.9544263 57.9645712,30.9666655 58.0828932,30.9666655 C58.4189277,30.9666655 58.7137185,30.7565593 58.8178419,30.4444598 C59.1653705,29.4041281 59.909785,28.552144 60.9145079,28.0435373 C61.9070605,27.5437701 63.0341622,27.4642153 64.092299,27.8252717 C67.0665763,28.8302457 70.3194174,27.2241911 71.3309016,24.2439467 C71.3985142,24.0487995 71.3843155,23.8434529 71.2950669,23.659185 Z M63.0341622,17.9312409 C63.6271245,16.1776359 65.5256857,15.2420173 67.2754992,15.8335785 C68.5006391,16.2490313 69.8312546,16.1653967 71.0151508,15.5942342 C72.1767349,15.018312 73.0482611,14.0167377 73.4593455,12.7805789 C73.5283104,12.5772722 73.515464,12.3698858 73.4235109,12.1828981 C73.3349384,11.9965903 73.1760488,11.8558395 72.983353,11.7892039 C72.7933616,11.7225683 72.5878194,11.7341275 72.4066177,11.8259215 C72.2173025,11.9183954 72.0759922,12.0809048 72.0083796,12.2842114 C71.7244068,13.1355156 71.139558,13.8045917 70.3221219,14.2146048 C69.4938679,14.6178183 68.5871832,14.6742546 67.752844,14.3696346 C67.2450735,14.1969259 66.7244567,14.1153313 66.2126295,14.1153313 C64.1815477,14.1153313 62.2660833,15.4018069 61.571026,17.4382732 C61.4412099,17.8278877 61.6636553,18.2807379 62.0605411,18.4180889 L62.0727114,18.4221687 C62.1301821,18.4432473 62.2038798,18.4541266 62.2992135,18.4541266 C62.635248,18.4541266 62.9300388,18.2433404 63.0341622,17.9312409 Z" id="icn-groceries"></path>
        </g>
    </g>
</svg>