<?xml version="1.0" encoding="UTF-8"?>
<svg width="203px" height="221px" viewBox="0 0 203 221" version="1.1" xmlns="http://www.w3.org/2000/svg" xmlns:xlink="http://www.w3.org/1999/xlink">
    <!-- Generator: Sketch 48.1 (47250) - http://www.bohemiancoding.com/sketch -->
    <title>logo-10-travaux</title>
    <desc>Created with Sketch.</desc>
    <defs>
        <polygon id="path-1" points="0 0.0161942851 202.669456 0.0161942851 202.669456 112.811765 0 112.811765"></polygon>
        <polygon id="path-3" points="0.184741532 0.226698705 198.471902 0.226698705 198.471902 56.5000614 0.184741532 56.5000614"></polygon>
    </defs>
    <g id="Homepage" stroke="none" stroke-width="1" fill="none" fill-rule="evenodd" transform="translate(-619.000000, -178.000000)">
        <g id="logo-10-travaux" transform="translate(619.000000, 178.000000)">
            <polygon id="Fill-1" fill="#FFFFFF" points="71.3966585 84.9819583 75.6878777 84.2161485 73.5071474 79.2866081"></polygon>
            <g id="Group-32" transform="translate(0.000000, 0.343679)">
                <g id="Group-4">
                    <mask id="mask-2" fill="white">
                        <use xlink:href="#path-1"></use>
                    </mask>
                    <g id="Clip-3"></g>
                    <path d="M185.367197,46.3381835 L155.162604,51.8035748 C155.302007,50.0258021 155.39242,48.1483447 155.432044,46.161126 L185.354589,40.7633908 C185.401417,41.7249715 185.427713,42.7005872 185.427713,43.6938367 C185.427713,44.5892007 185.405019,45.4690902 185.367197,46.3381835 Z M185.276783,70.8001909 L174.771167,72.6754892 L174.771167,72.347285 C175.193337,71.6624467 175.287352,70.6619997 174.067671,69.3797722 L172.61385,67.8589489 L171.371115,69.8612823 C170.315691,71.5494465 170.315691,72.5333393 170.714086,73.0717093 L170.714086,73.3995536 L163.491453,74.6886187 L163.491453,74.3607744 C164.757962,73.3847988 166.024471,72.1047306 167.642189,69.7302885 L170.479587,65.5687171 L168.111546,63.0859533 C166.56371,61.4409738 165.250373,60.5974315 163.843381,59.958297 L163.843381,59.6300928 L174.348997,57.7547946 L174.348997,58.0826389 C173.926827,58.7674772 173.832812,59.7679242 175.052493,61.0501517 L176.342056,62.4133506 L177.444669,60.6229824 C178.499733,58.9351781 178.523147,57.9469668 178.124391,57.4089566 L178.124391,57.0811123 L185.042645,55.8460282 L185.042645,56.1738725 C183.799189,57.1455296 182.580228,58.3942889 181.032392,60.7791673 L178.475959,64.6801907 L181.008618,67.3439706 C182.556454,68.98931 183.870151,69.8324924 185.276783,70.4719868 L185.276783,70.8001909 Z M158.09654,60.9839351 C156.736375,61.9768247 156.384807,62.9999436 156.384807,65.3434366 L156.384807,70.1700533 C156.384807,73.8252834 154.063594,76.7467324 148.528919,77.7345838 C142.900589,78.7393493 139.922707,77.3966631 139.922707,73.1087763 L139.922707,68.0241306 C139.922707,65.6809975 139.594552,65.0368248 138.375231,64.5042128 L138.375231,64.1763685 L147.192168,62.6022839 L147.192168,62.9304881 C145.99626,63.8938682 145.645053,64.6596779 145.645053,67.0024511 L145.645053,71.5246153 C145.645053,74.1491691 147.027911,75.0268994 149.279243,74.6249212 C151.507161,74.2272615 152.866966,72.8597441 152.866966,70.2355502 L152.866966,65.971415 C152.866966,63.627922 152.515398,62.7303987 151.178647,62.2186593 L151.178647,61.8911749 L158.09654,60.6560908 L158.09654,60.9839351 Z M133.308113,80.0769972 L124.467401,81.6554002 L124.467401,81.327196 C125.358208,80.5588672 125.569293,79.7480733 124.795556,78.0350778 L124.537643,77.4718765 L118.393487,78.5684096 L118.159349,79.2197797 C117.432078,81.2005207 117.784007,81.91091 118.675174,82.3611112 L118.675174,82.6893153 L112.484551,83.7941254 L112.484551,83.4662811 C113.469013,82.5406878 114.17287,81.3840559 114.993796,79.1287318 L117.831195,71.3349622 C118.276418,70.1074354 118.487503,68.9918291 118.323606,67.7560252 C121.019801,67.2511234 124.045232,66.5472118 126.179134,65.9786125 L130.798868,76.3069676 C131.666621,78.2614379 132.346704,79.1704771 133.308113,79.7491529 L133.308113,80.0769972 Z M109.364024,69.6831451 C108.378841,70.6087385 107.699119,71.7614117 106.831726,74.0250129 L102.329422,85.6068058 L95.5520117,86.8166988 L91.0497076,76.8424587 C90.1819541,74.8883483 89.5015115,73.9789492 88.517049,73.4049517 L88.517049,73.0767476 L97.4982433,71.4735133 L97.4982433,71.8013576 C96.607076,72.7103968 96.607076,73.7410731 97.3109324,75.3497054 L100.195159,82.004477 L103.079746,74.3201088 C103.782882,72.4602851 103.782882,71.4296088 102.891715,70.8386974 L102.891715,70.5108531 L109.364024,69.3553008 L109.364024,69.6831451 Z M85.3965225,88.6300989 L76.5558113,90.2077821 L76.5558113,89.8799378 C77.4466184,89.1112491 77.6580635,88.3008151 76.8839655,86.5878196 L76.6260529,86.0242584 L70.4822575,87.1211514 L70.2477587,87.7725215 C69.5208486,89.7532625 69.8724166,90.4636518 70.7639442,90.9138529 L70.7639442,91.2416972 L64.5729609,92.3472271 L64.5729609,92.0193828 C65.5577836,91.0934296 66.2616401,89.9367977 67.0822056,87.6814736 L69.9196045,79.8880639 C70.364828,78.6601772 70.5759129,77.5449308 70.4120159,76.308767 C73.1082113,75.8038652 76.1336415,75.1003135 78.2679044,74.5317141 L82.8872777,84.8600693 C83.7550312,86.8141797 84.4351136,87.7235788 85.3965225,88.3015348 L85.3965225,88.6300989 Z M59.7169275,93.2138013 L51.9312806,94.6036308 C51.9312806,93.6665215 51.8376252,92.9338201 51.3916813,91.6069683 C50.8059747,89.8374728 49.8207918,89.2631155 48.2261282,89.547775 L47.2647193,89.7194344 L47.2647193,91.3129521 C47.2647193,93.6557253 47.5932337,94.299898 48.672072,94.8577012 L48.672072,95.1855455 L39.9952578,96.7344389 L39.9952578,96.4065946 C41.2145793,95.4385362 41.5434539,94.6774048 41.5434539,92.3342717 L41.5434539,85.5859331 C41.5434539,83.2431599 41.2145793,82.5986273 39.9952578,82.0663752 L39.9952578,81.7385309 L49.8207918,79.9845098 C55.3082788,79.0045757 58.1925054,79.8959811 58.1925054,82.6141019 C58.1925054,84.9104515 56.0586028,86.5565106 53.5727719,87.5389639 L53.5727719,87.703066 C55.472536,87.6451264 56.5982021,88.5217771 57.6529061,90.4895627 C58.3805367,91.8588794 58.8725879,92.4271189 59.7169275,92.885957 L59.7169275,93.2138013 Z M33.35725,88.4062578 C32.020499,87.0049124 29.8397687,86.0116629 27.1197992,86.4974914 L27.1197992,94.6511341 C27.1197992,96.9946271 27.5884365,97.8712777 28.9489616,98.3783387 L28.9489616,98.7065429 L19.5686511,100.380672 L19.5686511,100.053188 C20.9288159,99.0602981 21.3978134,98.0163065 21.3978134,95.6728135 L21.3978134,87.518811 C18.6774838,88.0042797 16.4963932,89.7759345 15.1596422,91.6548314 L14.8552621,91.5922135 L15.5119307,85.7813442 C16.8249076,85.7104492 18.6540699,85.5481465 20.5304202,85.2131047 L27.9871925,83.8819345 C29.8631825,83.5472526 31.6923449,83.0563858 33.0053218,82.6583663 L33.6619903,88.2349583 L33.35725,88.4062578 Z M30.9647143,73.9354045 C32.2686859,72.2645142 33.2981751,70.318321 34.0740742,68.0522007 L64.5030795,62.5634177 C64.7707179,64.5520759 65.1543449,66.3582785 65.6597239,67.9985796 L30.6343989,74.3363031 C30.7457047,74.2042297 30.8580912,74.0717964 30.9647143,73.9354045 Z M64.0330013,55.0906548 C64.0423669,57.1242971 64.1259363,59.0172291 64.2934355,60.7726896 L34.6558184,66.1189629 C35.1190525,64.3379514 35.4446852,62.3719652 35.6446035,60.2116476 L64.0330013,55.0906548 Z M64.0293992,47.5340415 L64.0293992,53.2632197 L35.7822049,58.3583016 C35.8470433,57.2049087 35.8834248,56.0050921 35.8834248,54.7433773 L35.8834248,52.6111298 L64.0293992,47.5340415 Z M64.0293992,39.9767084 L64.0293992,45.7058866 L35.8834248,50.7829749 L35.8834248,45.0537967 L64.0293992,39.9767084 Z M64.0293992,32.4193754 L64.0293992,38.1485536 L35.8834248,43.2256419 L35.8834248,37.4964637 L64.0293992,32.4193754 Z M35.8834248,28.1109758 L35.8834248,23.2847189 L35.8834248,22.3817976 L64.2329196,17.2683621 C64.1475491,19.178568 64.0906355,21.0999299 64.0589367,23.0284894 L35.8834248,28.1109758 Z M64.040926,24.8598831 C64.0373239,25.3748613 64.0293992,25.8891199 64.0293992,26.4048179 L64.0293992,30.5912205 L35.8834248,35.6683088 L35.8834248,29.9391306 L64.040926,24.8598831 Z M32.260401,21.2071721 L32.1105523,21.1855797 L32.0856976,21.2388409 L10.9368635,25.0534947 C9.92646565,23.4221904 9.27772178,21.5551693 9.04142195,19.6665558 L64.7282127,9.62142065 C64.5671974,11.5420629 64.4339186,13.4763802 64.3290966,15.4225734 L32.260401,21.2071721 Z M20.0297239,30.3252744 C16.7301715,30.3252744 14.035417,28.8541135 12.1277282,26.6671653 L31.1120415,23.2426138 C28.5959527,28.0040935 24.9632031,30.3252744 20.0297239,30.3252744 Z M34.6014262,7.49816993 L63.2243228,2.33543184 L65.4742141,2.33543184 C65.2534035,4.12903888 65.0603292,5.9402797 64.8899484,7.76411608 L24.9949019,14.9604965 C28.8149623,13.0812397 32.0900202,10.5524121 34.6014262,7.49816993 Z M37.8663982,2.33543184 L53.0886454,2.33543184 L36.1532244,5.39039376 C36.7969253,4.4140583 37.3725459,3.39633745 37.8663982,2.33543184 Z M93.2084649,57.385205 L121.740228,52.2386612 C121.903404,54.194571 122.128898,56.0220061 122.415987,57.7285239 L95.1197559,62.6681407 C94.367991,60.9904128 93.7300536,59.2295542 93.2084649,57.385205 Z M91.7921069,50.0833818 L121.418197,44.7396276 C121.434407,46.7398017 121.497804,48.6374121 121.60947,50.4338981 L92.7535157,55.6391012 C92.3313459,53.8591694 92.0100358,52.0072629 91.7921069,50.0833818 Z M91.4423399,43.6938367 C91.4423399,43.3224477 91.4473829,42.9542976 91.4538667,42.5872272 L121.597943,37.1495461 C121.489159,38.9672646 121.428283,40.8868272 121.416036,42.9114727 L91.621726,48.2858162 C91.5042966,46.7955821 91.4423399,45.2661218 91.4423399,43.6938367 Z M92.1227825,34.9089768 L122.453089,29.4378275 C122.140785,31.2497881 121.899442,33.2013794 121.728341,35.2976396 L91.5165438,40.7475564 C91.6156024,38.7297485 91.8166013,36.7824756 92.1227825,34.9089768 Z M94.1940081,26.9780956 L124.620492,21.4896724 C123.894302,23.2793208 123.293107,25.2931702 122.815464,27.5441758 L92.4732699,33.0174843 C92.9087676,30.9057495 93.4825871,28.8922601 94.1940081,26.9780956 Z M98.6120223,18.6240037 L131.905443,12.618443 C129.300741,13.9913585 127.16864,16.2891476 125.53039,19.4974155 L94.9897189,25.0063514 C95.9878696,22.7247565 97.195304,20.5957479 98.6120223,18.6240037 Z M105.160697,11.7554676 C106.285643,10.8565048 107.48083,10.0223192 108.73185,9.24103488 L147.100314,2.32031717 C152.041718,2.90439105 156.617505,3.99840498 160.751311,5.58652454 L100.276567,16.4953549 C101.728586,14.7812798 103.354589,13.1989182 105.160697,11.7554676 Z M138.435026,1.81541535 C138.845669,1.81541535 139.248027,1.82873065 139.654708,1.83484849 L113.980516,6.46605416 C120.891205,3.40749351 129.170344,1.81541535 138.435026,1.81541535 Z M171.081143,11.2804352 L148.509828,15.3520383 C146.214549,12.8807904 143.353737,11.4841233 139.961249,11.1652758 L163.764854,6.87127116 C166.425028,8.11823111 168.870515,9.59083144 171.081143,11.2804352 Z M177.546249,17.6717797 L152.526564,22.184947 C152.246319,21.4392902 151.945901,20.7299805 151.624591,20.0573778 C151.077787,18.9101027 150.470108,17.875108 149.805154,16.9466356 L172.924714,12.7760674 C174.64041,14.2745786 176.181762,15.9066026 177.546249,17.6717797 Z M153.658714,43.6938367 C153.658714,44.0184421 153.653671,44.3344106 153.65151,44.6539778 C153.646467,45.2722396 153.636741,45.8811448 153.622693,46.4814129 C153.575505,48.4639533 153.479328,50.3514872 153.328039,52.1353777 L124.196521,57.4067974 C123.909431,55.6948815 123.684658,53.8638477 123.524363,51.9097373 C123.476455,51.3217048 123.43395,50.7214366 123.397208,50.1114519 C123.288064,48.3063289 123.228268,46.4065593 123.216381,44.4146623 C123.21494,44.1735474 123.210978,43.9374707 123.210978,43.6938367 C123.210978,41.2654136 123.2823,38.9730226 123.423864,36.8159438 C123.465288,36.1897648 123.511756,35.5736622 123.565067,34.9708749 C123.750937,32.8688567 124.010651,30.9079087 124.34745,29.0930692 C124.354655,29.0520437 124.3633,29.0128175 124.371224,28.9721519 C124.430299,28.6583426 124.493337,28.3513709 124.557094,28.0461986 C124.61725,27.7629786 124.678486,27.4822776 124.742244,27.2051754 C125.269236,24.9041474 125.93563,22.8672662 126.747551,21.1060478 C126.910727,20.7522926 127.079667,20.4093336 127.25401,20.0771709 C127.257612,20.0706931 127.260494,20.0634957 127.264096,20.057018 C127.44024,19.7216163 127.622868,19.3973708 127.81198,19.0857207 C130.282682,15.0097991 133.788997,12.8854688 138.435026,12.8854688 C141.574644,12.8854688 144.190512,13.8621641 146.321893,15.7486184 C146.558913,15.9580645 146.789089,16.1797462 147.014223,16.4107847 C147.045921,16.4435332 147.07798,16.4744822 147.108959,16.5068708 C147.210539,16.6137531 147.310678,16.7227946 147.409737,16.8339954 C148.727396,18.3206307 149.825686,20.2189608 150.716133,22.5117117 C150.816272,22.7693808 150.91353,23.032448 151.008266,23.2994737 C151.028078,23.3548942 151.047169,23.4106745 151.06626,23.4664548 C151.154152,23.7172863 151.240603,23.970277 151.322732,24.2293856 C151.850444,25.8869606 152.284501,27.7219531 152.630666,29.7235667 C152.730445,30.3022425 152.82338,30.8942336 152.908751,31.5013393 C153.155497,33.2618381 153.340646,35.1403751 153.464559,37.1351512 C153.500941,37.7242633 153.531919,38.3248913 153.557855,38.9345162 C153.623053,40.4603777 153.658714,42.0430992 153.658714,43.6938367 Z M181.649077,24.488854 L154.410479,29.4022001 C154.064675,27.4038253 153.631698,25.5745908 153.11119,23.9076591 L178.720544,19.2883292 C179.834683,20.9192737 180.811221,22.6535017 181.649077,24.488854 Z M184.084478,31.6067821 L155.251577,36.8083865 C155.124061,34.809292 154.937471,32.9339937 154.690725,31.1803326 L182.374546,26.186375 C183.059311,27.9105265 183.629529,29.7174489 184.084478,31.6067821 Z M184.466664,33.3662012 C184.821834,35.1601681 185.079386,37.0235905 185.23716,38.9561086 L155.454737,44.3286526 C155.456178,44.1159677 155.45978,43.9090407 155.45978,43.6938367 C155.45978,41.9221819 155.420877,40.2354571 155.348834,38.6189076 L184.466664,33.3662012 Z M199.138866,43.8460629 L187.18159,46.0096194 C187.210407,45.248488 187.228778,44.4787197 187.228778,43.6938367 C187.228778,41.9506118 187.153494,40.266766 187.014091,38.6365413 L187.014091,38.6358216 C186.847313,36.6946666 186.587959,34.8305245 186.233149,33.0477136 C186.233149,33.0469939 186.233149,33.0462741 186.232789,33.0455544 C186.114999,32.4517639 185.983882,31.8694894 185.84556,31.2929729 C185.84556,31.2918932 185.8452,31.2908136 185.844839,31.2893741 C185.38917,29.3878052 184.827237,27.5794433 184.163004,25.8635689 C184.162284,25.8621294 184.161203,25.86033 184.160483,25.8581708 C183.938231,25.2834536 183.704093,24.7195326 183.458787,24.1653282 C183.458427,24.1642486 183.458067,24.1635288 183.457707,24.1628091 C181.409895,19.5308836 178.591948,15.6143858 175.160197,12.3730096 C175.158396,12.3712103 175.156595,12.3697708 175.154434,12.3676115 C174.880311,12.1088628 174.600786,11.8544326 174.318739,11.6036011 L174.301809,11.5888464 C168.440781,6.39228019 160.928176,3.04294216 152.488382,1.34794032 C152.487661,1.34794032 152.487301,1.34794032 152.486581,1.34758045 C152.06297,1.26265042 151.637198,1.18203886 151.209625,1.10574579 C151.169281,1.09818845 151.129298,1.09135087 151.089314,1.08415341 C150.703165,1.01577754 150.315216,0.950640523 149.925465,0.888742367 C149.858105,0.877946177 149.790385,0.867149987 149.723026,0.85671367 C149.352366,0.799133989 148.979546,0.744793166 148.605644,0.692971454 C148.531801,0.68289501 148.457957,0.671738946 148.384113,0.662022375 C145.165609,0.229095153 141.8376,0.0160503359 138.435026,0.0160503359 C126.590498,0.0160503359 115.646502,2.58194484 107.136106,8.11787124 L107.134665,8.11859099 C106.219724,8.71382093 105.332879,9.34323881 104.476292,10.0082841 C104.476292,10.0082841 104.475572,10.008644 104.475572,10.0090039 C101.894645,12.0106175 99.5863989,14.3289194 97.6034255,16.9775847 C97.6034255,16.9775847 97.6030653,16.9775847 97.6030653,16.9779446 C97.3505559,17.3155054 97.102369,17.6570249 96.860666,18.0050221 C96.8599456,18.0057419 96.8595854,18.0064616 96.8588649,18.0071814 C96.6168017,18.3558983 96.379061,18.7085738 96.147444,19.068087 L96.147444,19.0684468 C94.8967839,21.0124808 93.8096607,23.1177379 92.8979612,25.3834983 C92.8979612,25.384218 92.8979612,25.3845779 92.897601,25.3849378 C92.7697253,25.7019859 92.6454518,26.021913 92.5251406,26.3450789 C92.5200976,26.3580344 92.5157751,26.3713497 92.5110923,26.3843051 C90.9077836,30.7006219 89.9326866,35.5873374 89.6981879,41.0754007 L89.6981879,41.0775599 C89.6726127,41.6803472 89.657844,42.2917714 89.6499193,42.9089536 L89.6499193,42.9125524 C89.6470376,43.1727405 89.6412742,43.4311294 89.6412742,43.6938367 C89.6412742,48.1508638 90.1113523,52.2321835 90.9909928,55.957229 C90.9909928,55.957229 90.9909928,55.957229 90.991353,55.9575888 C91.1307555,56.5485003 91.2798838,57.1304149 91.4401786,57.7033328 L91.4401786,57.7040525 C91.959606,59.5620768 92.5881779,61.324015 93.3140074,62.9945455 L67.4543058,67.6739742 C66.9406418,66.0556253 66.5501708,64.2519418 66.2814518,62.2424109 C66.2475918,61.987261 66.2155328,61.7288722 66.1849147,61.4679642 C66.1636621,61.2851488 66.1438504,61.1005339 66.1247591,60.9148394 C66.1085495,60.7608138 66.090899,60.6096671 66.0761303,60.4534823 C65.913314,58.7034198 65.8311854,56.8119273 65.8304649,54.7664092 L65.8308252,54.7664092 C65.8308252,54.758492 65.8304649,54.7512945 65.8304649,54.7433773 L65.8304649,52.9382543 L65.8304649,47.209436 L65.8304649,45.3809213 L65.8304649,39.652103 L65.8304649,37.8235882 L65.8304649,32.0947699 L65.8304649,30.2662552 L65.8304649,26.4048179 C65.8304649,25.7757599 65.8337069,25.1524598 65.8394703,24.534198 C65.8452337,23.9180954 65.8538788,23.3077508 65.8646852,22.7028043 C65.9010667,20.7188244 65.9659051,18.7974625 66.0534369,16.939798 C66.0826141,16.316498 66.1143129,15.7021948 66.1485331,15.0943693 C66.2627207,13.0722429 66.4021232,11.1343267 66.5613374,9.28709863 C66.5804287,9.06001876 66.6009609,8.83581788 66.6207726,8.61089725 C66.6517509,8.26973765 66.682369,7.92929779 66.714428,7.59497577 C66.7191108,7.54315406 66.7237935,7.49025273 66.7288365,7.43879089 C66.9676578,4.94918945 67.2385381,2.64132389 67.5223861,0.536066825 L63.0643882,0.536066825 L36.6845388,0.536066825 C35.9050376,2.47110396 34.8694248,4.24095939 33.6274099,5.84599298 C33.0373807,6.60856387 32.3990831,7.3319086 31.7186404,8.01854629 C25.9469452,13.8452501 17.1098362,16.9153267 8.05912071,16.9153267 L7.40209194,18.1338566 L7.40173172,18.1338566 L7.14778146,18.6052903 C7.15678679,18.8366886 7.17119531,19.0677271 7.19028661,19.2976859 C7.19028661,19.2994853 7.19064682,19.3009248 7.19100703,19.3023643 C7.39776938,21.7642555 8.21005002,24.134739 9.50429584,26.155066 L9.60371467,26.308012 C11.241964,28.7947345 13.6211719,30.7268926 16.5133232,31.6049828 C16.5136834,31.6049828 16.5136834,31.6049828 16.5136834,31.6053426 C17.0507612,31.7683651 17.6054894,31.8950404 18.1760671,31.9817698 C18.2185722,31.9886074 18.2607172,31.9936456 18.3025019,31.9994036 C18.5294362,32.0314323 18.7588919,32.0573431 18.9901488,32.0767763 C19.0578688,32.0825342 19.1245083,32.0886521 19.1925886,32.0933304 C19.4685118,32.1120438 19.7469566,32.1246394 20.0297239,32.1246394 C20.2472926,32.1246394 20.4616195,32.1203209 20.6730646,32.1124037 C20.756634,32.1091648 20.8369616,32.1023272 20.9194504,32.0983686 C21.0458852,32.0911712 21.1737609,32.0857731 21.2976742,32.0760565 C21.4014156,32.0681393 21.501915,32.0562635 21.6034951,32.0461871 C21.7039946,32.0364705 21.8059349,32.0281934 21.9049935,32.0166775 C22.0202617,32.0030023 22.1326482,31.9857284 22.2461154,31.9695341 C22.3286042,31.9580182 22.4118134,31.9479417 22.4932216,31.9353462 C22.6164145,31.9155532 22.7370859,31.8918015 22.8581175,31.8694894 C22.926558,31.856534 22.9967996,31.8457378 23.0648799,31.8317027 C23.1938362,31.805432 23.3206312,31.7759224 23.447066,31.7467727 C23.5039797,31.7334574 23.561974,31.7215816 23.6185275,31.7079064 C23.7536074,31.6744382 23.8858056,31.6377312 24.0180038,31.6010241 C24.0633907,31.5884286 24.1098582,31.5765528 24.1548848,31.5635974 C24.2942873,31.5232916 24.4308081,31.4797469 24.5666085,31.4351227 C24.6026298,31.4236068 24.6397317,31.4124507 24.6753928,31.400215 C24.817677,31.3523519 24.9574397,31.3016098 25.0957616,31.2490684 C25.1238582,31.2389919 25.1519548,31.2296352 25.1796912,31.218839 C25.3241367,31.1630587 25.4660607,31.1047593 25.6065438,31.0446605 C25.6267157,31.0360235 25.6479683,31.0277465 25.66778,31.0194694 C25.8140266,30.9561317 25.956671,30.8899151 26.098595,30.822259 C26.1126433,30.8154214 26.1270518,30.8093035 26.1411001,30.8021061 C26.2866262,30.7319308 26.4303513,30.6585168 26.5715548,30.5833033 C26.5809204,30.5782651 26.5899257,30.5735867 26.598931,30.5689084 C26.7440969,30.4915357 26.8860209,30.4109241 27.0268642,30.3288731 C27.0319072,30.3256342 27.0373104,30.3223954 27.0430738,30.3191565 C27.1864387,30.2349462 27.327282,30.147857 27.465964,30.0586085 C27.4677651,30.057169 27.4699264,30.0560893 27.4720877,30.0546499 C27.612931,29.9639619 27.7516131,29.8707548 27.8870532,29.7753884 C27.8874134,29.7753884 27.8877736,29.7753884 27.8877736,29.7750285 C30.2907555,28.0897433 31.9779939,25.6796738 33.17138,23.1548048 L34.0823591,23.2847189 L34.0823591,28.4359411 L34.0823591,30.2640959 L34.0823591,35.9932741 L34.0823591,37.821429 L34.0823591,43.5506072 L34.0823591,45.378762 L34.0823591,51.1079402 L34.0823591,52.9360951 L34.0823591,54.7433773 C34.0823591,56.1296081 34.0387733,57.439186 33.9580855,58.6872256 C33.9404351,58.9610889 33.9206234,59.2313535 33.899731,59.4998188 C33.877758,59.7718828 33.8547044,60.0417875 33.828769,60.3073738 C33.8212045,60.3854663 33.8150809,60.4657179 33.8071562,60.5430906 C33.5798617,62.7379561 33.2095626,64.707541 32.6894148,66.4737977 C32.5932379,66.798763 32.4916578,67.1158111 32.3850347,67.4271013 C32.3799918,67.4418561 32.3756692,67.4573306 32.3709864,67.4720854 C32.2593204,67.7956112 32.1422511,68.1115797 32.0201388,68.4210705 C30.9737196,71.0708154 29.5116145,73.1919069 27.6071676,74.8840298 L3.29998465,79.2823976 C16.3076415,92.2777716 -8.56831801,100.935956 3.31871574,112.811765 L198.194027,78.62383 C181.083902,61.5298624 212.829847,57.524116 199.138866,43.8460629 Z" id="Fill-2" fill="#FFFFFF" mask="url(#mask-2)"></path>
                </g>
                <path d="M48.4608791,82.4298469 L47.2649714,82.6432516 L47.2649714,87.6573621 L48.4608791,87.4443173 C51.0403654,86.9836799 52.3299285,85.8162518 52.3299285,84.0823837 C52.3299285,82.4888661 51.0403654,81.9695693 48.4608791,82.4298469" id="Fill-5" fill="#FFFFFF"></path>
                <polygon id="Fill-7" fill="#FFFFFF" points="119.308177 76.0856817 123.599396 75.3195121 121.418665 70.3899717"></polygon>
                <path d="M12.9773989,176.623798 L3.31900391,178.296488 L3.31900391,177.892351 C5.80555524,176.190871 6.26878934,174.897128 6.26878934,169.119007 L6.26878934,149.35874 C6.26878934,143.580979 5.80555524,142.562898 3.31900391,141.722595 L3.31900391,141.318457 L13.6138956,139.534927 L21.9416632,164.035441 L30.4426934,136.620315 L40.3903396,134.897603 L40.3903396,135.301741 C37.9614224,136.993144 37.4985485,138.171368 37.4985485,143.949489 L37.4985485,163.825275 C37.4985485,169.603036 37.9614224,170.621117 40.3903396,171.471856 L40.3903396,171.875994 L28.1877591,173.989528 L28.1877591,173.585391 C30.5590423,171.903344 31.0788298,170.715043 31.0788298,164.936923 L31.0788298,144.887678 L21.7100462,175.111252 L19.281129,175.531944 L10.0279737,148.476331 L10.0279737,168.467996 C10.0279737,174.246117 10.4908476,175.379357 12.9773989,176.219661 L12.9773989,176.623798 Z" id="Fill-9" fill="#FFFFFF"></path>
                <path d="M49.0040085,169.979499 C51.49092,168.27766 51.9537939,167.099435 51.9537939,161.321314 L51.9537939,141.445888 C51.9537939,135.667767 51.49092,134.650047 49.0040085,133.809383 L49.0040085,133.405246 L61.3802117,131.261842 L61.3802117,131.66598 C58.8936603,133.367819 58.4315069,134.546043 58.4315069,140.324164 L58.4315069,160.19959 C58.4315069,165.977711 58.8936603,166.995792 61.3802117,167.836095 L61.3802117,168.240233 L49.0040085,170.383996 L49.0040085,169.979499 Z" id="Fill-11" fill="#FFFFFF"></path>
                <path d="M79.4223155,131.083705 L79.4223155,146.510741 L82.4300952,145.990005 C87.4611922,145.118392 89.6012185,141.049668 89.6012185,136.485399 C89.6012185,132.035929 87.4611922,129.691357 82.4300952,130.562969 L79.4223155,131.083705 Z M82.2561123,164.624589 L69.9951773,166.748199 L69.9951773,166.343702 C72.4817286,164.642223 72.9453229,163.463998 72.9453229,157.685877 L72.9453229,137.810091 C72.9453229,132.03233 72.4817286,131.01425 69.9951773,130.173946 L69.9951773,129.769809 L83.6440135,127.405443 C91.5096277,126.043324 96.2518337,128.68875 96.2518337,135.102047 C96.2518337,139.955654 92.8395346,143.955643 88.3289456,146.296617 L88.3289456,146.469716 C91.1051083,146.79828 93.0131574,148.201065 94.9792007,153.985303 C96.6570735,158.95227 97.4084782,160.382406 99.201259,161.285327 L99.201259,161.689465 L89.5435844,163.362154 C89.7741208,161.473181 89.7741208,160.14489 88.3865798,155.12754 C86.940324,149.830929 84.9742806,148.437861 81.8512327,148.97875 L79.4223155,149.399442 L79.4223155,156.564153 C79.4223155,162.341914 79.8848291,163.359995 82.2561123,164.220092 L82.2561123,164.624589 Z" id="Fill-13" fill="#FFFFFF"></path>
                <path d="M129.041676,156.86767 C127.075633,156.977072 125.340486,157.162046 121.466033,157.833209 L105.272291,160.63806 L105.272291,160.233922 C107.759203,158.532083 108.222077,157.353859 108.222077,151.575738 L108.222077,131.699952 C108.222077,125.922191 107.759203,124.90411 105.272291,124.063806 L105.272291,123.659669 L120.482652,121.024679 C124.241836,120.374029 126.092611,119.879923 128.116649,119.298368 L130.313949,127.988941 L129.909429,128.232575 C126.671113,124.228988 123.605699,123.43115 117.243975,124.532721 L114.699429,124.973565 L114.699429,137.916038 L116.781461,137.555445 C120.540286,136.904435 122.79594,135.936017 124.935967,134.409795 L126.728747,142.477069 L126.323508,142.778282 C123.778962,140.445585 121.69729,139.650266 115.624817,140.702175 L114.699429,140.862318 L114.699429,153.862371 C114.699429,155.653818 115.219577,155.967988 116.954724,155.667494 C124.415098,154.37519 127.30725,152.488016 130.487932,146.737245 L130.892451,146.840529 L129.041676,156.86767 Z" id="Fill-15" fill="#FFFFFF"></path>
                <path d="M151.884593,153.20006 C142.746706,154.782782 137.889231,148.863951 137.889231,136.499434 C137.889231,124.134557 142.746706,116.53296 151.884593,114.950598 C154.776023,114.449655 156.51153,114.611238 158.651196,114.240209 C159.229699,114.140164 159.923469,113.962387 160.444337,113.75654 L161.774244,122.59754 L161.369725,122.841174 C158.824459,119.757062 155.933028,117.369305 152.463095,117.969933 C146.969124,118.921797 144.713469,125.379358 144.713469,135.317611 C144.713469,145.255144 147.026758,150.921704 152.521089,149.96984 C153.677734,149.769751 154.718389,149.473935 155.644137,149.024454 L155.644137,142.726317 C155.644137,137.179594 155.065275,136.182386 152.752346,135.311493 L152.752346,134.964576 L163.914271,133.031338 L163.914271,133.378255 C162.410381,134.910235 162.063496,136.067946 162.063496,141.614669 L162.063496,146.757254 C162.063496,149.183878 162.178764,150.088598 162.410381,150.856567 L162.063496,151.148065 C161.369725,151.036864 160.385983,151.092284 159.229699,151.292374 C156.973684,151.683196 154.834018,152.689401 151.884593,153.20006" id="Fill-17" fill="#FFFFFF"></path>
                <path d="M184.442746,144.556091 C189.590192,143.664326 191.729858,137.111398 191.729858,127.173865 C191.729858,117.235972 189.590192,111.424743 184.442746,112.315788 C179.29602,113.207554 177.155994,119.760481 177.155994,129.698374 C177.155994,139.635907 179.29602,145.447856 184.442746,144.556091 M184.442746,109.311209 C193.522999,107.738564 198.554456,113.627525 198.554456,125.992042 C198.554456,138.356199 193.522999,145.988026 184.442746,147.56103 C175.363213,149.133675 170.331396,143.244714 170.331396,130.880197 C170.331396,118.51568 175.363213,110.884213 184.442746,109.311209" id="Fill-19" fill="#FFFFFF"></path>
                <path d="M95.9808454,110.000545 C95.9808454,107.3508 94.5662884,106.317965 91.8963886,106.768526 L91.030076,106.914634 L91.030076,113.733148 C91.030076,114.651904 91.3128433,114.851274 92.1085541,114.717041 C94.5662884,114.302467 95.9808454,112.65029 95.9808454,110.000545 Z M85.5483523,117.237232 C86.4679765,116.517126 86.7154429,115.945647 86.7154429,114.178671 L86.7154429,109.091506 C86.7154429,107.32453 86.4679765,106.836542 85.5483523,106.426287 L85.5483523,106.179054 L92.7274003,104.967721 C97.377752,104.182838 100.542585,105.203078 100.542585,109.230777 C100.542585,113.258835 97.377752,115.488609 92.7274003,116.273492 L85.5483523,117.484824 L85.5483523,117.237232 Z" id="Fill-21" fill="#FFFFFF"></path>
                <path d="M114.811852,112.687285 C113.96319,112.75998 112.760798,112.892053 111.081124,113.175633 L101.992226,114.709771 L101.992226,114.462539 C102.911851,113.742073 103.159317,113.170235 103.159317,111.403618 L103.159317,106.316094 C103.159317,104.549477 102.911851,104.061129 101.992226,103.651594 L101.992226,103.404001 L110.373666,101.98934 C111.858825,101.738509 113.167479,101.39411 114.104393,101.11233 L115.271484,104.571789 L115.059318,104.748847 C113.344344,103.696218 111.576057,103.446826 108.976759,103.885511 L107.47395,104.139222 L107.47395,107.000932 L108.340263,106.854823 C109.825421,106.604352 111.081124,106.215689 112.141952,105.683077 L113.344344,108.518876 L113.149829,108.727962 C111.787863,108.286398 110.179151,108.205067 107.986533,108.575016 L107.47395,108.661386 L107.47395,110.957736 C107.47395,111.876491 107.756717,112.076221 108.552428,111.941988 C112.07135,111.347838 113.609461,110.43484 115.218533,108.573217 L115.448349,108.658507 L114.811852,112.687285 Z" id="Fill-23" fill="#FFFFFF"></path>
                <polygon id="Fill-25" fill="#FFFFFF" points="198.554384 93.668141 122.54941 106.495454 122.54941 104.696089 198.554384 91.8687759"></polygon>
                <polygon id="Fill-27" fill="#FFFFFF" points="79.6840103 113.909954 3.67903694 126.737267 3.67903694 124.937902 79.6840103 112.110589"></polygon>
                <g id="Group-31" transform="translate(3.602131, 163.742216)">
                    <mask id="mask-4" fill="white">
                        <use xlink:href="#path-3"></use>
                    </mask>
                    <g id="Clip-30"></g>
                    <path d="M198.084774,7.82367506 C197.275735,7.31625413 177.790726,-4.57646899 140.223737,2.43169787 C126.840738,4.92957638 0.184753321,26.2020294 0.184753321,26.2020294 L0.184753321,27.8250567 L0.184753321,27.8376522 C0.140086892,27.7717955 127.024807,6.59039028 140.523794,4.07127926 C154.537166,1.45464266 166.049938,1.56260456 174.95873,2.6965644 C161.224163,3.13740882 149.657719,9.72632363 143.871975,18.8051997 C140.557294,19.0315599 137.060345,19.476003 133.378606,19.9564335 C122.34888,21.3876484 109.854527,23.0157139 94.4730652,19.9499558 C94.0209977,19.8628665 93.5790162,20.1554432 93.4914844,20.606724 C93.4086354,21.0400111 93.6744727,21.4614224 94.094121,21.572983 L94.1423896,21.5855786 C109.795452,24.7038781 122.437132,23.0628572 133.589331,21.6118493 C136.83233,21.1911577 139.918996,20.7938579 142.854373,20.5513035 C139.812733,26.2149849 139.083302,32.7070938 140.810524,38.9199413 C142.586735,45.3156043 146.751879,50.6345273 152.530779,53.897136 C154.047276,54.7547133 155.646623,55.3999656 157.288114,55.8357718 C160.693569,56.7390531 164.282733,56.7286167 167.762392,55.7591189 C172.927848,54.3264644 177.217627,50.9710086 179.855467,46.3113729 C183.896699,39.1635754 181.885629,30.221451 175.48212,25.4149872 C175.477437,25.40707 175.474555,25.3933948 175.464109,25.384398 C175.14532,25.0655505 167.508802,17.7460935 145.963373,18.6770849 C154.636945,6.34603651 174.788349,-0.62650291 195.777609,8.49879681 C195.806426,8.51283186 195.834162,8.50707389 195.86442,8.51535097 C196.714163,8.94216035 197.168031,9.21854282 197.196849,9.23293774 C197.581196,9.47801125 198.099903,9.36177227 198.347009,8.97202981 C198.587631,8.58084786 198.469842,8.0683887 198.085855,7.82331519 L198.084774,7.82367506 Z M145.005206,20.3943989 C154.834702,19.8542295 161.772768,21.0831958 166.42456,22.5838663 C162.146309,22.8598889 158.084905,25.2098596 155.823127,29.2138066 C154.420817,31.6969303 154.067808,34.5687169 154.828939,37.3134683 C155.590069,40.0582196 157.378888,42.3405342 159.862917,43.7472778 C161.888036,44.8959924 164.234104,45.1802921 166.47571,44.5584315 C168.717677,43.9372907 170.58178,42.4808847 171.725457,40.4558793 C171.948068,40.0596591 171.810827,39.5482796 171.415673,39.3201201 C171.02052,39.0919606 170.501092,39.2333907 170.278841,39.6299708 C169.34841,41.2691923 167.84488,42.4438178 166.032648,42.9454807 C164.217894,43.4525418 162.321732,43.2161052 160.685284,42.2941106 C158.592085,41.1079692 157.07883,39.1851677 156.439812,36.8629073 C155.798633,34.5467646 156.092206,32.1208607 157.272985,30.0278393 C160.388829,24.5268206 167.395695,22.5809873 172.901913,25.693169 C179.879602,29.6384567 182.348863,38.5201224 178.40633,45.4933816 C175.9893,49.7621952 172.047127,52.8394692 167.317168,54.1533655 C162.580726,55.4661822 157.625634,54.860516 153.346662,52.4443286 C147.95211,49.4005228 144.064329,44.4346352 142.412752,38.4754982 C140.755411,32.5145618 141.525547,26.2610486 144.57223,20.8715905 C144.658681,20.7190044 144.75846,20.5631794 144.858239,20.4077142 C144.905787,20.4008766 144.959459,20.3954785 145.005206,20.3947588 L145.005206,20.3943989 Z" id="Fill-29" fill="#FFFFFF" mask="url(#mask-4)"></path>
                </g>
            </g>
        </g>
    </g>
</svg>