<?xml version="1.0" encoding="UTF-8"?>
<svg width="130px" height="24px" viewBox="0 0 130 24" version="1.1" xmlns="http://www.w3.org/2000/svg" xmlns:xlink="http://www.w3.org/1999/xlink">
    <!-- Generator: Sketch 48.1 (47250) - http://www.bohemiancoding.com/sketch -->
    <title>logo-mirego-black</title>
    <desc>Created with Sketch.</desc>
    <defs></defs>
    <g id="Homepage" stroke="none" stroke-width="1" fill="none" fill-rule="evenodd" transform="translate(-655.000000, -5501.000000)">
        <path d="M676.218018,5501 L675.706614,5501 C675.547644,5501 675.258199,5501.13305 675.162217,5501.3334 L667.741616,5515.7337 L667.677129,5515.7337 L660.255028,5501.3334 C660.160546,5501.13305 659.872601,5501 659.712131,5501 L659.200727,5501 C658.944276,5501 658.65633,5501.23093 658.623336,5501.53221 L655.009018,5523.93099 C654.94453,5524.36685 655.233975,5524.66813 655.619403,5524.66813 L659.391191,5524.66813 C659.712131,5524.66813 659.967083,5524.4005 660.001576,5524.13286 L661.406811,5513.83426 L661.471299,5513.83426 L666.877779,5524.63296 C666.973761,5524.8333 667.230213,5525 667.420677,5525 L667.996568,5525 C668.155538,5525 668.444984,5524.8333 668.540966,5524.63296 L673.914452,5513.83426 L673.97894,5513.83426 L675.418668,5524.13286 C675.448663,5524.4005 675.738108,5524.66813 676.024554,5524.66813 L679.800842,5524.66813 C680.184769,5524.66813 680.474215,5524.36685 680.409727,5523.93099 L676.793909,5501.53221 C676.762415,5501.23093 676.474469,5501 676.218018,5501 M690.054408,5501.3334 L686.213632,5501.3334 C685.895692,5501.3334 685.606247,5501.63315 685.606247,5501.96655 L685.606247,5524.03345 C685.606247,5524.36685 685.895692,5524.66813 686.213632,5524.66813 L690.054408,5524.66813 C690.372348,5524.66813 690.660294,5524.36685 690.660294,5524.03345 L690.660294,5501.96655 C690.660294,5501.63315 690.372348,5501.3334 690.054408,5501.3334 M714.387318,5508.53202 C714.387318,5504.56643 711.25141,5501.3334 707.412134,5501.3334 L697.848438,5501.3334 C697.496004,5501.3334 697.241052,5501.63315 697.241052,5501.96655 L697.241052,5524.03345 C697.241052,5524.36685 697.496004,5524.66813 697.848438,5524.66813 L701.65472,5524.66813 C701.97416,5524.66813 702.262105,5524.36685 702.262105,5524.03345 L702.262105,5515.53336 L704.469689,5515.53336 L708.725886,5524.36685 C708.790374,5524.4999 708.980838,5524.66813 709.23729,5524.66813 L713.490488,5524.66813 C714.034885,5524.66813 714.258343,5524.13286 714.034885,5523.70159 L709.652711,5515.23361 C712.433187,5514.06519 714.387318,5511.59989 714.387318,5508.53202 M706.996712,5511.2986 L702.262105,5511.2986 L702.262105,5506.09883 L706.996712,5506.09883 C708.308965,5506.09883 709.430753,5507.23361 709.430753,5508.63143 C709.430753,5510.03384 708.308965,5511.2986 706.996712,5511.2986 M733.67968,5501.3334 L720.435678,5501.3334 C720.084744,5501.3334 719.829792,5501.63315 719.829792,5501.96655 L719.829792,5524.03345 C719.829792,5524.36685 720.084744,5524.66813 720.435678,5524.66813 L733.67968,5524.66813 C734.032113,5524.66813 734.288565,5524.36685 734.288565,5524.03345 L734.288565,5520.40126 C734.288565,5520.06481 734.032113,5519.76658 733.67968,5519.76658 L724.817851,5519.76658 L724.817851,5515.26725 L732.112475,5515.26725 C732.431915,5515.26725 732.719861,5514.99809 732.719861,5514.63105 L732.719861,5510.99885 C732.719861,5510.66546 732.431915,5510.3657 732.112475,5510.3657 L724.817851,5510.3657 L724.817851,5506.23342 L733.67968,5506.23342 C734.032113,5506.23342 734.288565,5505.93366 734.288565,5505.59874 L734.288565,5501.96655 C734.288565,5501.63315 734.032113,5501.3334 733.67968,5501.3334 M757.211741,5512.66737 L750.783954,5512.66737 C750.43152,5512.66737 750.173569,5512.93347 750.173569,5513.30052 L750.173569,5516.59931 C750.173569,5516.93271 750.43152,5517.20034 750.783954,5517.20034 L752.798074,5517.20034 L752.798074,5519.13038 C751.839754,5519.53259 750.878436,5519.66565 749.951611,5519.66565 C746.463268,5519.66565 743.618305,5516.66507 743.618305,5513.03288 C743.618305,5509.36704 746.431774,5506.30071 749.920116,5506.30071 C751.487321,5506.30071 752.894056,5506.73351 754.110326,5507.89887 C754.363778,5508.10075 754.719211,5508.10075 754.974163,5507.86676 L757.499687,5505.06653 C757.756139,5504.79736 757.726144,5504.39973 757.436699,5504.16421 C755.263609,5502.19901 752.318164,5501.03212 749.632171,5501.03212 C743.265872,5501.03212 738.147337,5506.36647 738.147337,5513.03288 C738.147337,5519.70082 743.265872,5524.96635 749.632171,5524.96635 C754.269296,5524.96635 757.565674,5522.80233 757.565674,5522.80233 C757.691651,5522.69834 757.820626,5522.43223 757.820626,5522.26706 L757.787633,5513.30052 C757.787633,5512.96712 757.532681,5512.66737 757.211741,5512.66737 M773.482172,5501 C767.085879,5501 761.997339,5506.36647 761.997339,5513.03288 C761.997339,5519.70082 767.085879,5525 773.482172,5525 C779.879966,5525 785,5519.70082 785,5513.03288 C785,5506.36647 779.879966,5501 773.482172,5501 M773.482172,5519.66565 C769.99683,5519.66565 767.117373,5516.66507 767.117373,5513.03288 C767.117373,5509.36704 769.99683,5506.33282 773.482172,5506.33282 C777.002009,5506.33282 779.879966,5509.36704 779.879966,5513.03288 C779.879966,5516.66507 777.002009,5519.66565 773.482172,5519.66565" id="logo-mirego-black" fill="#171717"></path>
    </g>
</svg>