<?xml version="1.0" encoding="UTF-8"?>
<svg width="102px" height="72px" viewBox="0 0 102 72" version="1.1" xmlns="http://www.w3.org/2000/svg" xmlns:xlink="http://www.w3.org/1999/xlink">
    <!-- Generator: Sketch 48.2 (47327) - http://www.bohemiancoding.com/sketch -->
    <title>logo-10ans</title>
    <desc>Created with Sketch.</desc>
    <defs></defs>
    <g id="Homepage-V2" stroke="none" stroke-width="1" fill="none" fill-rule="evenodd" transform="translate(-1280.000000, -40.000000)" opacity="0.6">
        <g id="logo-10ans" transform="translate(1281.000000, 40.000000)" fill="#000000">
            <polygon id="Fill-1" points="16.8133203 0 16 0.813320332 85.1866797 70 86 69.1864879 16.8137038 0"></polygon>
            <polygon id="Fill-2" points="85.1864879 0 16 69.1864879 16.8133203 70 86 0.813320332 85.1868714 0"></polygon>
            <path d="M44.3711324,56.1510642 L42.7020572,56.1510642 C42.5336237,56.1510642 42.3987624,55.9986892 42.3987624,55.8121975 L42.3987624,54.7112642 C42.3987624,54.5757558 42.4493116,54.5080975 42.4998607,54.4571142 L44.7589301,52.6786392 C44.9443405,52.5431308 45.1297509,52.4752808 45.3657104,52.4752808 L46.6302017,52.4752808 C46.798826,52.4752808 46.9504734,52.6276558 46.9504734,52.7970892 L46.9504734,63.9940642 C46.9504734,64.1803642 46.798826,64.3329308 46.6302017,64.3329308 L44.7083809,64.3329308 C44.5059936,64.3329308 44.3711324,64.1803642 44.3711324,63.9940642 L44.3711324,56.1510642 Z" id="Fill-3"></path>
            <path d="M55.6328306,58.4040867 C55.6328306,56.11712 54.8909983,54.779095 53.829085,54.779095 C52.7837671,54.779095 52.0421254,56.11712 52.0421254,58.4040867 C52.0421254,60.70792 52.7837671,62.045945 53.829085,62.045945 C54.8909983,62.045945 55.6328306,60.70792 55.6328306,58.4040867 M49.3952584,58.4040867 C49.3952584,54.5757367 50.9968075,52.30602 53.829085,52.30602 C56.6613624,52.30602 58.2796977,54.5757367 58.2796977,58.4040867 C58.2796977,62.2153783 56.6613624,64.5021533 53.829085,64.5021533 C50.9968075,64.5021533 49.3952584,62.2153783 49.3952584,58.4040867" id="Fill-5"></path>
            <path d="M45.5736676,70.8498658 L45.225737,70.0908658 L45.2209682,70.0908658 L44.8778064,70.8498658 L45.5736676,70.8498658 Z M43.6919046,71.8344575 L45.1248295,68.7382742 C45.1387543,68.7106742 45.1708006,68.6876742 45.2028468,68.6876742 L45.2486272,68.6876742 C45.2806734,68.6876742 45.3127197,68.7106742 45.326263,68.7382742 L46.7593786,71.8344575 C46.7868468,71.8940658 46.7502225,71.9540575 46.6817428,71.9540575 L46.1733902,71.9540575 C46.0909855,71.9540575 46.0543613,71.9262658 46.013159,71.8388658 L45.848159,71.4756575 L44.6029335,71.4756575 L44.4381243,71.8436575 C44.4152341,71.8988575 44.3648757,71.9540575 44.273315,71.9540575 L43.7697312,71.9540575 C43.7010607,71.9540575 43.6644364,71.8940658 43.6919046,71.8344575 Z" id="Fill-7"></path>
            <path d="M49.4967382,68.7705508 C49.4967382,68.7245508 49.5379405,68.6875592 49.5837208,68.6875592 L49.6523913,68.6875592 C49.6983624,68.6875592 49.7304087,68.7197592 49.7668422,68.7567508 L51.5249983,70.4541508 L51.5295763,70.4541508 L51.5295763,68.8211508 C51.5295763,68.7749592 51.5662006,68.7337508 51.616559,68.7337508 L52.1659231,68.7337508 C52.2117035,68.7337508 52.2529058,68.7749592 52.2529058,68.8211508 L52.2529058,71.9171425 C52.2529058,71.9723425 52.2117035,72.0001342 52.1659231,72.0001342 L52.1201428,72.0001342 C52.0745532,72.0001342 52.0425069,71.9861425 52.0056919,71.9493425 L50.2246457,70.1505508 L50.2200676,70.1505508 L50.2200676,71.8665425 C50.2200676,71.9127342 50.1836341,71.9539425 50.133085,71.9539425 L49.5882988,71.9539425 C49.5425185,71.9539425 49.5013162,71.9127342 49.5013162,71.8665425 L49.4967382,68.7705508 Z" id="Fill-9"></path>
            <path d="M55.2377272,71.6457425 C55.2011029,71.6089425 55.187178,71.5675425 55.2192243,71.5077425 L55.4300046,71.1351425 C55.4666289,71.0751508 55.5398775,71.0751508 55.5856578,71.1073508 C55.7138428,71.1947508 55.9473225,71.3605425 56.2357387,71.3605425 C56.4188601,71.3605425 56.5518139,71.2455425 56.5518139,71.0843508 C56.5518139,70.8911508 56.3822358,70.7671425 56.0800855,70.6197508 C55.6360162,70.4037425 55.1919468,70.1553425 55.1919468,69.6031508 C55.1919468,69.1477508 55.5442647,68.6875592 56.2494728,68.6875592 C56.7257792,68.6875592 57.092022,68.9315508 57.2291723,69.0327508 C57.2842994,69.0649508 57.2751434,69.1477508 57.2568312,69.1799508 L57.0231607,69.5341508 C56.9911145,69.5847508 56.9132879,69.6215508 56.8219179,69.5663508 C56.7164324,69.4927508 56.4463283,69.3177592 56.2036925,69.3177592 C56.011415,69.3177592 55.9244324,69.4375508 55.9244324,69.5709508 C55.9244324,69.7227508 56.1029757,69.8423508 56.4234382,69.9987508 C56.8263052,70.1965508 57.3482012,70.4219508 57.3482012,71.0477425 C57.3482012,71.5215425 56.9409468,72.0001342 56.267785,72.0001342 C55.6726405,72.0001342 55.343022,71.7515425 55.2377272,71.6457425" id="Fill-12"></path>
            <g id="Group-3" transform="translate(-1.000000, 33.000000)">
                <path d="M2.6714263,2.9063 C2.6714263,1.8506 2.3280737,1.2434 1.77870954,1.2434 C1.2359263,1.2434 0.892573699,1.8506 0.892573699,2.9063 C0.892573699,3.9622875 1.2359263,4.5763875 1.77870954,4.5763875 C2.3280737,4.5763875 2.6714263,3.9622875 2.6714263,2.9063 M0.000143063584,2.9063 C0.000143063584,1.3469 0.652226879,0.4220125 1.77870954,0.4220125 C2.91177312,0.4220125 3.56414306,1.3469 3.56414306,2.9063 C3.56414306,4.4588 2.91177312,5.390875 1.77870954,5.390875 C0.652226879,5.390875 0.000143063584,4.4588 0.000143063584,2.9063" id="Fill-15"></path>
                <path d="M7.63616185,1.257085 L5.77490462,1.257085 C5.7062341,1.257085 5.64443064,1.194985 5.64443064,1.119085 L5.64443064,0.622285 C5.64443064,0.553285 5.7062341,0.491185 5.77490462,0.491185 L8.72115607,0.491185 C8.78982659,0.491185 8.85849711,0.553285 8.85849711,0.622285 C8.85849711,0.649885 8.85849711,0.670585 8.83131503,0.725785 L6.75002601,5.12856 C6.69537572,5.2455725 6.6267052,5.32176 6.50967919,5.32176 L5.98120231,5.32176 C5.89879769,5.32176 5.80923988,5.3007725 5.80923988,5.1834725 C5.80923988,5.12856 5.81639306,5.09406 5.84357514,5.0385725 L7.63616185,1.270885 L7.63616185,1.257085 Z" id="Fill-17"></path>
            </g>
            <g id="Group-2" transform="translate(93.000000, 33.000000)">
                <path d="M0.92745526,1.78157125 L0.268218266,1.91957125 C0.194969711,1.93337125 0.121415954,1.89197125 0.114396301,1.82297125 L0.0701419653,1.47797125 C0.0631223121,1.40207125 0.0777720231,1.37447125 0.143695723,1.32617125 L1.08127723,0.58097125 C1.15452578,0.51858375 1.23540439,0.49127125 1.33795237,0.49127125 L1.71884486,0.49127125 C1.79911306,0.49127125 1.85801711,0.55337125 1.85801711,0.62237125 L1.85801711,5.18355875 C1.85801711,5.25974625 1.79911306,5.32155875 1.71884486,5.32155875 L1.07395237,5.32155875 C0.986054104,5.32155875 0.92745526,5.25974625 0.92745526,5.18355875 L0.92745526,1.78157125 Z" id="Fill-19"></path>
                <path d="M6.45057942,1.257085 L4.46523838,1.257085 C4.39198983,1.257085 4.32606613,1.194985 4.32606613,1.119085 L4.32606613,0.622285 C4.32606613,0.553285 4.39198983,0.491185 4.46523838,0.491185 L7.60790659,0.491185 C7.68115514,0.491185 7.7544037,0.553285 7.7544037,0.622285 C7.7544037,0.649885 7.7544037,0.670585 7.72540948,0.725785 L5.50536786,5.12856 C5.44707422,5.2455725 5.37382566,5.32176 5.24930312,5.32176 L4.68528925,5.32176 C4.59739098,5.32176 4.50186266,5.3007725 4.50186266,5.1834725 C4.50186266,5.12856 4.50949272,5.09406 4.53848694,5.0385725 L6.45057942,1.270885 L6.45057942,1.257085 Z" id="Fill-21"></path>
            </g>
            <path d="M47.0601936,3.06978583 L43.7497023,3.06978583 C43.5520838,3.06978583 43.4021532,3.23289417 43.4021532,3.4305025 L43.4021532,14.8041942 C43.4021532,15.0016108 43.5377775,15.2417692 43.711552,15.3374108 L45.8847832,16.5307275 C46.0577948,16.6263692 46.2117312,16.5428025 46.2117312,16.3457692 L46.2117312,6.18436917 C46.2117312,5.9869525 46.3433497,5.8495275 46.5417312,5.8495275 L49.0001358,5.8495275 L47.6114653,3.38641917 C47.5147543,3.21411083 47.2585751,3.06978583 47.0601936,3.06978583" id="Fill-23"></path>
            <path d="M54.5745798,6.18436917 L54.5745798,16.3457692 C54.5745798,16.5428025 54.7306145,16.6263692 54.9038168,16.5307275 L57.0728514,15.3374108 C57.245863,15.2417692 57.3847301,15.0016108 57.3847301,14.8041942 L57.3847301,3.4305025 C57.3847301,3.23289417 57.2349902,3.06978583 57.0373717,3.06978583 L53.7268803,3.06978583 C53.5286896,3.06978583 53.2723197,3.21411083 53.1756087,3.38641917 L51.7867474,5.8495275 L54.2453428,5.8495275 C54.4437243,5.8495275 54.5745798,5.9869525 54.5745798,6.18436917" id="Fill-25"></path>
            <path d="M51.7866902,17.1540083 L51.7866902,5.8497 L49.0001931,5.8497 L49.0001931,17.1540083 C49.0001931,17.351425 49.1564185,17.550375 49.3546092,17.550375 L51.4250254,17.550375 C51.6232162,17.550375 51.7866902,17.351425 51.7866902,17.1540083" id="Fill-27"></path>
            <path d="M24.6659931,35.9450083 L25.5972416,38.5656667 C25.653704,38.7188083 25.7979121,38.815025 25.9539468,38.815025 C25.9867561,38.815025 26.0201376,38.8106167 26.0535191,38.8016083 L26.9136173,38.5675833 C25.7809353,40.1957917 24.4166809,40.337625 24.2488197,40.3487417 C24.0088543,40.329 23.7477156,40.2929667 23.4903919,40.25655 C22.4216116,40.1057083 21.2193052,39.9458583 20.6359873,40.7897667 L20.6359873,40.7899583 L20.6357965,40.79015 C20.6155769,40.819475 20.5900162,40.840175 20.5713225,40.8721833 C19.4636289,42.764125 16.9636405,43.2653333 16.9382705,43.2699333 C16.7688832,43.3027083 16.6418428,43.446075 16.6298254,43.618575 C16.4381202,46.3971667 17.9708081,46.861 18.7937098,47.11055 C18.9032012,47.1435167 19.0033457,47.1734167 19.0889931,47.2069583 C19.3447908,47.305475 19.4992994,47.592975 19.5862821,47.8567083 L16.5302532,47.8567083 C16.501259,47.7836833 16.4676867,47.7029917 16.4314439,47.6132917 C15.5623803,45.5089833 15.0420104,44.1355 14.8783457,43.516225 C15.5949988,43.2145417 17.0985017,42.1605667 17.5147214,38.6339 C18.3643283,38.3172667 19.3178948,37.6090583 19.7320162,36.971 C20.1799006,36.2846417 20.4862474,35.4660333 20.6762358,34.494475 M26.1897156,37.9724583 L25.4179353,35.884825 L25.319889,35.5195083 C25.3155017,35.503025 25.3044382,35.49095 25.2981434,35.4756167 C25.2870798,35.448975 25.2771607,35.4231 25.2605653,35.3997167 C25.2472127,35.3807417 25.2306173,35.366175 25.2142127,35.3502667 C25.1957098,35.3320583 25.1783514,35.3140417 25.1562243,35.2998583 C25.1346694,35.2860583 25.1110162,35.2782 25.0871723,35.2688083 C25.0696231,35.2621 25.0555075,35.2504083 25.0366231,35.2461917 C21.6395306,34.4722417 18.5960913,33.3968 18.6741087,28.7977583 C18.7053919,26.9663833 19.2034439,25.593475 20.1549121,24.7158333 C20.5276405,24.3725583 20.9333688,24.145625 21.3295595,23.9836667 C19.9702647,25.09265 18.8162185,27.0409417 19.4367329,30.0794333 C20.0604902,33.1263583 22.9253861,34.798075 27.5142936,34.7973083 C27.5764786,34.796925 27.6411434,34.7976917 27.7042821,34.7936667 C27.7092416,34.7938583 27.7132474,34.7965417 27.7180162,34.7965417 L31.1814902,34.80095 L31.1822532,34.80095 C31.3665191,34.80095 31.5240798,34.6687 31.556889,34.4866167 L31.7732012,33.2653167 C31.8014324,33.1867333 31.9240855,33.082275 32.2065884,33.0792083 L32.2065884,36.334475 M24.4084786,22.8744917 L24.8597965,23.617775 C24.9103457,23.7015333 24.991415,23.7619083 25.085074,23.7872083 C28.2376231,24.6454917 29.2390682,24.9174667 29.5541896,25.0025667 C29.4895249,25.333575 29.0517503,26.09315 28.8688197,26.288075 C28.8167445,26.343275 28.7007676,26.3798833 28.619889,26.4015417 C28.448785,26.447925 28.0005191,26.4943083 27.7136289,26.4195583 C27.6140566,26.3940667 27.5596925,26.2829 27.4593572,26.0364167 L27.4213977,25.9371333 C27.3754266,25.8025833 27.3046578,25.6001833 27.1062763,25.4731083 C26.7814266,25.264 26.3457503,25.4687 26.148704,25.6458 C25.9323919,25.8399583 25.7948601,26.1312917 25.7599526,26.46575 C25.6983399,27.047075 25.7071145,27.641625 26.5702647,27.969375 L27.853259,28.29655 C27.6749064,28.599 27.3754266,28.9898083 26.9664555,29.1151583 C26.6528601,29.2123333 26.2990162,29.1362417 25.912363,28.8903333 C25.679074,28.7268417 25.5451665,28.6528583 25.415074,28.5804083 C25.1972358,28.4587 24.9719584,28.3331583 24.0882069,27.626675 C23.7187214,27.3317 23.5098486,26.99015 23.4682647,26.612375 C23.3892936,25.8995667 23.9045133,25.2469417 23.9096636,25.2400417 C23.9869179,25.1430583 24.0138139,25.0123417 23.9796694,24.8927417 C23.9773803,24.8852667 23.7774728,24.17495 23.9773803,23.587875 C24.0754266,23.300375 24.2524439,23.053125 24.4084786,22.8744917 M31.5954208,29.3035667 C31.6534092,28.6528583 31.6623746,28.44375 31.6667618,28.3444667 C31.6698139,28.2743167 31.6705769,28.2743167 31.7003341,28.1144667 C31.7760624,27.7050667 31.7947561,27.6274417 32.1842705,27.6638583 L32.1842705,30.3663583 L28.0480162,33.6632167 C28.0279873,33.3646 28.0081491,33.0449 28.0005191,32.8538083 C27.9825884,32.4137417 27.9152532,31.942625 27.8008023,31.4830083 C31.5645191,29.5387417 31.5704324,29.5335667 31.5954208,29.3035667 M23.1546694,23.7897 C23.0932474,24.2483583 23.1546694,24.680375 23.2035017,24.9182333 C23.0043572,25.2193417 22.6266694,25.9049333 22.7107908,26.6892333 C22.7739295,27.2801417 23.0777965,27.796875 23.6138081,28.2256333 C24.5475364,28.9717917 24.8010451,29.11305 25.0463514,29.2489417 C25.1348601,29.2982 25.2210798,29.3461167 25.345259,29.427575 C25.3942821,29.4634167 25.4440682,29.4969583 25.4930913,29.5282 C25.580074,29.5895333 25.6826983,29.6642833 25.8089757,29.7597333 C25.8173688,29.7660583 25.8274786,29.7670167 25.8360624,29.7723833 C25.8650566,29.8042 25.8969121,29.8341 25.9369699,29.8555667 C26.8268254,30.32745 27.194785,31.7825833 27.2392301,32.88505 C27.2504844,33.1522333 27.2846289,33.665325 27.3098081,34.029875 C24.3424786,33.997675 20.858022,33.2279417 20.1833341,29.9257167 C19.8382647,28.2405833 20.0486636,26.807875 20.8069006,25.6680333 C21.5374786,24.5701667 22.5780277,24.023725 23.1546694,23.7897 M24.9750104,43.5192917 C24.8487329,44.025675 24.3869237,44.420125 23.6035075,44.6905667 C23.4213399,44.7532417 23.3143283,44.9429917 23.3543861,45.131975 L23.6576809,46.5526083 C23.6956405,46.7289417 23.8511029,46.85525 24.0302185,46.85525 L25.2752532,46.85065 C25.2798312,46.8493083 25.7406867,46.78625 25.9518486,47.0216167 C26.0966289,47.1814667 26.1048312,47.4586167 26.0662994,47.72465 L23.1077445,47.72465 L21.3160162,44.383325 C21.6729121,44.23325 22.121941,43.9465167 22.2928543,43.426525 C22.5076405,42.7763917 22.2083514,41.984425 21.4155884,41.0720917 C21.824178,40.7974333 22.6127445,40.9055333 23.3849064,41.0140167 C23.6138081,41.0462167 23.8350798,41.0745833 24.0504382,41.096625 C24.4462474,41.5608417 25.1890335,42.6581333 24.9750104,43.5192917 M13.5076058,33.0702 C12.8416925,33.8867 12.4832705,34.1078833 12.3413514,34.1682583 C12.1561318,33.6275667 12.2908023,32.830425 12.3695827,32.5272083 C12.5658659,31.530925 12.8586694,31.3478833 12.9746462,31.3149167 C13.0000162,31.3084 13.0259584,31.3045667 13.0528543,31.3045667 C13.2825191,31.3045667 13.5745595,31.541275 13.6912994,31.67065 C13.7084671,31.6900083 13.728496,31.7078333 13.7492879,31.72355 C13.9402301,31.8640417 14.0443803,31.9976333 14.060022,32.1224083 M20.3370798,48.4976417 C20.4091838,48.4184833 20.4456173,48.3123 20.435889,48.2057333 C20.4315017,48.1511083 20.3088486,46.8602333 19.3632936,46.4928083 C19.2614324,46.453325 19.1431665,46.4174833 19.013837,46.378 C18.258652,46.14915 17.327022,45.8677833 17.3762358,43.9516917 C18.0755306,43.76635 19.8325422,43.1604917 20.9337503,41.6798667 C21.4575538,42.3079583 21.6851202,42.8346583 21.5710509,43.1840667 C21.4232185,43.6388917 20.7042763,43.7791917 20.698363,43.7799583 C20.5779988,43.80085 20.4738486,43.8786667 20.4202474,43.9892583 C20.366837,44.100425 20.369126,44.230375 20.4269237,44.3386667 L22.544837,48.2885333 C22.6117908,48.4125417 22.7403572,48.4894 22.880178,48.4894 L26.3770335,48.4894 C26.5509988,48.4894 26.7026462,48.3705667 26.7457561,48.2019 C26.9359353,47.452675 26.8571549,46.8813167 26.5115133,46.5025833 C26.0239526,45.9686 25.2411087,46.0797667 25.2159295,46.0903083 L24.3379006,46.0903083 L24.1677503,45.2925917 C25.0209815,44.9303417 25.5405884,44.3969333 25.7132185,43.7044417 C25.9537561,42.7378667 25.3502185,41.632525 24.9210277,41.0025167 C24.9397214,40.9992583 25.3279006,40.8466917 25.3279006,40.8466917 C26.1061665,40.5287167 27.1541549,39.8222333 27.9707618,38.2798917 L32.6867098,36.9961083 C32.8524728,36.95145 32.9676867,36.7998417 32.9676867,36.6273417 L32.9676867,32.7342083 C32.9676867,32.5496333 32.8368312,32.3920833 32.6571434,32.3585417 C31.5649006,32.1500083 31.1204497,32.7305667 31.0334671,33.0889833 L30.8640798,34.0354333 L28.8091145,34.0329417 L32.8011607,30.8503167 C32.8927214,30.7780583 32.9453688,30.6674667 32.9453688,30.5509333 L32.9453688,27.3226917 C32.9453688,27.129875 32.8019237,26.9669583 32.6117445,26.9431917 C31.7457329,26.8349 31.1597445,26.8467833 30.9457214,28.0105833 C30.9100509,28.2024417 30.9108139,28.2024417 30.9064266,28.3115 C30.9026116,28.3967917 30.8951723,28.563925 30.8551145,29.0323583 C30.3452358,29.3047167 28.7595191,30.12735 27.5680855,30.7435583 C27.4387561,30.4250083 27.2750913,30.130225 27.0788081,29.8718583 C27.1158139,29.8632333 27.1530104,29.8578667 27.1894439,29.8465583 C28.2532647,29.5193833 28.7400624,28.2294667 28.7602821,28.1748417 C28.7982416,28.0732583 28.7908023,27.9605583 28.7400624,27.86415 C28.6904671,27.7677417 28.6019584,27.6975917 28.4970451,27.6713333 L26.7999295,27.242 C26.5176173,27.1337083 26.4594382,27.0909667 26.5168543,26.545675 C26.5315422,26.4023083 26.5820913,26.2821333 26.6557214,26.2163917 C26.6662127,26.2073833 26.6831896,26.1962667 26.7018832,26.185725 C26.7026462,26.1864917 26.7026462,26.188025 26.7026462,26.1887917 L26.7545306,26.32545 C26.8764208,26.6256 27.0437098,27.0373 27.525548,27.1605417 C27.9558832,27.2719 28.5388197,27.2157417 28.8175075,27.140225 C29.0032994,27.0894333 29.2390682,27.0074 29.4210451,26.8145833 C29.5200451,26.7093583 30.5176751,25.3558083 30.2849584,24.6738583 C30.2120913,24.4611083 30.040415,24.3190833 29.8536694,24.29225 C29.801022,24.2780667 26.2059295,23.300375 25.4307156,23.0889667 L24.8115364,22.0693 C24.7548832,21.976725 24.6627503,21.9125167 24.5565017,21.8931583 C24.4502532,21.872075 24.3409526,21.8998667 24.255496,21.9648417 C24.231652,21.9832417 23.7896809,22.3330333 23.4699815,22.8859917 C23.4472821,22.8836917 23.4270624,22.8758333 23.4026462,22.8775583 C23.0348775,22.8528333 21.1132474,22.7938 19.6404555,24.152525 C18.5291376,25.1766 17.9479179,26.735425 17.9130104,28.7843417 C17.8693283,31.3536333 18.7427792,32.940825 19.9674035,33.9754417 C19.9588197,34.0337083 19.9586289,34.0940833 19.9721723,34.1525417 C19.8056462,35.117775 19.5178023,35.9041833 19.0949064,36.5525917 C18.753652,37.0775667 17.8637965,37.7200333 17.1524844,37.955975 C17.1278775,37.964025 17.1097561,37.9805083 17.0880104,37.992775 C17.0870566,37.9929667 17.0859121,37.9925833 17.0847676,37.992775 C17.0662647,37.9971833 15.2732012,38.37285 14.8390509,37.17915 C14.5052358,36.262025 15.0114902,35.6929667 15.9341549,34.7674083 C16.241074,34.4595917 16.5584844,34.1406583 16.8579642,33.774 C17.8571202,32.5488667 18.1024266,30.9474917 17.4550162,29.879525 C16.9569642,29.0576583 16.0299121,28.7253083 14.9081029,28.9645083 C13.9726578,29.165375 13.6237734,29.9498667 13.5318312,30.641975 C13.3065538,30.5490167 13.046941,30.5014833 12.7747387,30.577 C12.2082069,30.7332083 11.8312821,31.3223917 11.6285133,32.3547083 C11.6143977,32.4101 11.2731434,33.721675 11.6990913,34.6096667 C11.760704,34.7501583 11.9169295,34.913075 12.1704382,34.94815 C12.2015306,34.9525583 12.2335769,34.9548583 12.2669584,34.9548583 C12.7352532,34.9548583 13.3202879,34.505975 14.0964555,33.5558833 L14.157496,33.4811333 C14.4985595,33.0659833 14.8859757,32.59525 14.8152069,32.027725 C14.7761029,31.70975 14.5897387,31.4197583 14.2685133,31.1635 C14.2519179,30.8355583 14.2732821,29.882975 15.0673803,29.712775 C15.8633861,29.5395083 16.479704,29.7419083 16.8045538,30.277425 C17.2119988,30.949025 17.1591607,32.1986917 16.2693052,33.2885083 C15.9934786,33.6268 15.6894208,33.93155 15.3958543,34.2257583 C14.5164902,35.1087667 13.607178,36.0209083 14.1239237,37.4423083 C14.5596,38.6388833 15.8246636,38.8688833 16.7288254,38.8106167 C16.2113168,42.5124667 14.4018486,42.8737583 14.3879237,42.87625 C14.1924035,42.9051917 14.0510566,43.0794167 14.063074,43.2772167 C14.0987445,43.8874833 14.8844497,45.8624167 15.7281434,47.9067333 C15.812074,48.111625 15.8746405,48.2601667 15.9021087,48.3303167 C15.909548,48.3609833 15.9206116,48.3914583 15.9362532,48.4200167 C16.005496,48.5499667 16.142074,48.6275917 16.2811318,48.6275917 C16.3034497,48.6275917 16.3250046,48.6252917 16.3473225,48.62165 L20.0568659,48.62165 C20.1638775,48.62165 20.2649757,48.5768 20.3370798,48.4976417" id="Fill-29"></path>
            <path d="M80.0786393,34.4944175 C80.2686277,35.4659758 80.5751653,36.2847758 81.0230497,36.9709425 C81.4369803,37.6090008 82.3905468,38.3172092 83.2403445,38.6340342 C83.6563734,42.1605092 85.1600671,43.2144842 85.8765295,43.5161675 C85.7128647,44.1356342 85.1926855,45.5091175 84.323622,47.6132342 C84.2869977,47.7029342 84.2538069,47.7836258 84.224622,47.8568425 L81.1687838,47.8568425 C81.2557665,47.5931092 81.4102751,47.3056092 81.6658821,47.2069008 C81.7515295,47.1733592 81.8518647,47.1434592 81.9611653,47.1104925 C82.7840671,46.8609425 84.3169457,46.3973008 84.1250497,43.6185175 C84.1132231,43.4460175 83.9859919,43.3026508 83.8166046,43.2698758 C83.7914254,43.2654675 81.2912462,42.7640675 80.1837434,40.8721258 C80.1650497,40.8401175 80.1392983,40.8194175 80.1190786,40.7902842 L80.1190786,40.7900925 L80.1190786,40.7899008 C79.5355699,39.9458008 78.3334543,40.1056508 77.2644832,40.2564925 C77.0071595,40.2929092 76.7462116,40.3289425 76.5060555,40.3486842 C76.338385,40.3375675 74.9739399,40.1957342 73.8414486,38.5675258 L74.7013561,38.8017425 C74.7347376,38.8107508 74.7681191,38.8149675 74.8009283,38.8149675 C74.956963,38.8149675 75.1011711,38.7187508 75.1578243,38.5656092 L76.0888821,35.9449508 M75.7184428,35.2461342 C75.6995584,35.2503508 75.685252,35.2620425 75.6678936,35.2687508 C75.643859,35.2781425 75.6203965,35.2860008 75.5988416,35.2998008 C75.5765237,35.3139842 75.5593561,35.3320008 75.5408532,35.3502092 C75.5244486,35.3663092 75.5076624,35.3808758 75.4943098,35.3998508 C75.4779052,35.4232342 75.4677954,35.4489175 75.4569225,35.4755592 C75.450437,35.4908925 75.4395642,35.5031592 75.4349861,35.5196425 L75.3369399,35.8847675 L74.5653503,37.9724008 L68.5484775,36.3346092 L68.5484775,33.0793425 C68.8307896,33.0822175 68.9536335,33.1868675 68.9818647,33.2652592 L69.1981769,34.4865592 C69.2307954,34.6688342 69.3883561,34.8010842 69.5728127,34.8010842 L69.5735757,34.8010842 L73.036859,34.7964842 C73.0416277,34.7964842 73.0458243,34.7938008 73.0505931,34.7938008 C73.1139225,34.7978258 73.1783965,34.7970592 73.2405815,34.7972508 C77.829489,34.7980175 80.6945757,33.1263008 81.3181422,30.0795675 C81.9388474,27.0410758 80.7846104,25.0927842 79.4253156,23.9838008 C79.8215064,24.1455675 80.2272347,24.3725008 80.599963,24.7157758 C81.551622,25.5934175 82.049674,26.9663258 82.0807665,28.7978925 C82.1587838,33.3967425 79.1155353,34.4723758 75.7184428,35.2461342 M76.7774948,23.5878175 C76.9775931,24.1750842 76.7774948,24.8854008 76.7753965,24.8928758 C76.741252,25.0122842 76.7679572,25.1430008 76.8452116,25.2401758 C76.8503618,25.2468842 77.3655815,25.8997008 77.2868012,26.6123175 C77.2452173,26.9902842 77.0363445,27.3316425 76.6666682,27.6266175 C75.7829168,28.3331008 75.5578301,28.4586425 75.3398012,28.5805425 C75.2098994,28.6528008 75.0759919,28.7267842 74.8425121,28.8904675 C74.4560497,29.1361842 74.1022058,29.2122758 73.7884197,29.1152925 C73.3796393,28.9897508 73.0801595,28.5991342 72.9016162,28.2966842 L74.1848012,27.9695092 C75.0477607,27.6415675 75.056726,27.0470175 74.9951133,26.4658842 C74.960015,26.1312342 74.8224832,25.8399008 74.6061711,25.6457425 C74.4091249,25.4686425 73.9734486,25.2639425 73.6487896,25.4732425 C73.4502173,25.6001258 73.3796393,25.8025258 73.3336682,25.9370758 L73.2955179,26.0363592 C73.1951827,26.2828425 73.1410092,26.3942008 73.0412462,26.4195008 C72.7545468,26.4942508 72.3062809,26.4478675 72.1351769,26.4016758 C72.0542983,26.3800175 71.9381306,26.3434092 71.8862462,26.2882092 C71.7033156,26.0930925 71.265541,25.3335175 71.2008763,25.0027008 C71.5158069,24.9174092 72.517252,24.6456258 75.6699919,23.7873425 C75.7636509,23.7618508 75.8447202,23.7014758 75.8950786,23.6177175 L76.3465873,22.8746258 C76.502622,23.0530675 76.6794486,23.3003175 76.7774948,23.5878175 M72.9542636,31.4829508 C72.8398127,31.9425675 72.7722867,32.4138758 72.7545468,32.8537508 C72.746726,33.0450342 72.7268879,33.3645425 72.706859,33.6633508 L68.5707954,30.3663008 L68.5707954,27.6639925 C68.9603098,27.6273842 68.9790035,27.7050092 69.0547318,28.1144092 C69.0842983,28.2742592 69.0850613,28.2742592 69.0881133,28.3444092 C69.0925006,28.4436925 69.1014659,28.6528008 69.1594543,29.3035092 C69.1846335,29.5335092 69.1905468,29.5386842 72.9542636,31.4829508 M79.9479746,25.6681675 C80.7064023,26.8078175 80.9168012,28.2407175 80.5717318,29.9256592 C79.8970439,33.2278842 76.4123965,33.9978092 73.4452578,34.0300092 C73.4702462,33.6654592 73.5043908,33.1521758 73.5156451,32.8851842 C73.5602809,31.7827175 73.9282405,30.3275842 74.818096,29.8555092 C74.857963,29.8342342 74.8900092,29.8043342 74.9188127,29.7725175 C74.9273965,29.7669592 74.9376971,29.7661925 74.9458994,29.7598675 C75.0723676,29.6642258 75.1748012,29.5896675 75.2617838,29.5283342 C75.3109977,29.4969008 75.3607838,29.4633592 75.4096162,29.4275175 C75.5339861,29.3460592 75.6202058,29.2983342 75.7087145,29.2488842 C75.9540208,29.1129925 76.2073387,28.9719258 77.1412578,28.2255758 C77.6770786,27.7970092 77.9811364,27.2800842 78.0442751,26.6891758 C78.1282058,25.9048758 77.7507087,25.2192842 77.5513734,24.9181758 C77.6002058,24.6803175 77.6618185,24.2483008 77.6002058,23.7896425 C78.1768474,24.0238592 79.2173965,24.5701092 79.9479746,25.6681675 M76.704437,41.0965675 C76.9197954,41.0745258 77.1412578,41.0463508 77.3701595,41.0141508 C78.1421306,40.9054758 78.9306971,40.7975675 79.3392867,41.0720342 C78.5467145,41.9843675 78.2474254,42.7763342 78.4620208,43.4266592 C78.6331249,43.9464592 79.081963,44.2333842 79.438859,44.3834592 L77.6473214,47.7245925 L74.6887665,47.7245925 C74.6500439,47.4587508 74.6582462,47.1814092 74.8032173,47.0215592 C75.0141884,46.7863842 75.4750439,46.8492508 75.4798127,46.8507842 L76.7248474,46.8551925 C76.903963,46.8551925 77.0594254,46.7288842 77.0971942,46.5525508 L77.400489,45.1319175 C77.4407376,44.9431258 77.3335353,44.7531842 77.1513676,44.6905092 C76.3679514,44.4200675 75.9063329,44.0258092 75.7800555,43.5192342 C75.5660324,42.6582675 76.3086277,41.5607842 76.704437,41.0965675 M86.6950439,32.1225425 C86.7106855,31.9977675 86.8146451,31.8639842 87.0055873,31.7234925 C87.0265699,31.7077758 87.0464081,31.6899508 87.0635757,31.6705925 C87.1803156,31.5414092 87.4725468,31.3045092 87.7022116,31.3045092 C87.7289168,31.3045092 87.7550497,31.3083425 87.7802289,31.3150508 C87.8962058,31.3478258 88.1892,31.5308675 88.3854832,32.5273425 C88.4642636,32.8305592 88.5987434,33.6275092 88.4135237,34.1683925 C88.2716046,34.1078258 87.9133734,33.8868342 87.2472694,33.0703342 L87.1848936,32.9940508 C86.9411133,32.6983092 86.665096,32.3621258 86.6950439,32.1225425 M80.6982,48.6215925 L84.4075526,48.6215925 C84.4300613,48.6254258 84.4514254,48.6275342 84.4737434,48.6275342 C84.6128012,48.6275342 84.7495699,48.5499092 84.8188127,48.4199592 C84.8342636,48.3915925 84.8453272,48.3611175 84.8527665,48.3304508 C84.8804254,48.2601092 84.9428012,48.1115675 85.0267318,47.9068675 C85.8704254,45.8625508 86.6561306,43.8876175 86.6919919,43.2771592 C86.7038185,43.0793592 86.5626624,42.9053258 86.3671422,42.8761925 C86.3530266,42.8738925 84.5435584,42.5124092 84.0262405,38.8107508 C84.9302116,38.8688258 86.1952751,38.6388258 86.6311422,37.4422508 C87.1476971,36.0208508 86.2385757,35.1087092 85.3592116,34.2258925 C85.0656451,33.9314925 84.7613965,33.6267425 84.4857607,33.2884508 C83.5957145,32.1986342 83.5430671,30.9489675 83.9505121,30.2775592 C84.2751711,29.7420425 84.891489,29.5394508 85.6876855,29.7127175 C86.4815931,29.8829175 86.5029572,30.8356925 86.4865526,31.1634425 C86.1651364,31.4197008 85.978963,31.7098842 85.9396682,32.0276675 C85.8688994,32.5951925 86.2563156,33.0659258 86.5975699,33.4810758 L86.6584197,33.5558258 C87.4345873,34.5059175 88.019622,34.9548008 88.4879168,34.9548008 C88.521489,34.9548008 88.5535353,34.9526925 88.5846277,34.9480925 C88.8381364,34.9130175 88.9941711,34.7501008 89.0559746,34.6098008 C89.4819225,33.7216175 89.1406682,32.4100425 89.1265526,32.3546508 C88.9235931,31.3225258 88.546859,30.7331508 87.9803272,30.5771342 C87.7079341,30.5014258 87.4485121,30.5491508 87.2230439,30.6419175 C87.1311017,29.9498092 86.7822173,29.1655092 85.8467723,28.9644508 C84.724963,28.7252508 83.797911,29.0577925 83.3000497,29.8794675 C82.6524486,30.9476258 82.8977549,32.5490008 83.896911,33.7739425 C84.1965815,34.1406008 84.5139919,34.4595342 84.820911,34.7673508 C85.743385,35.6929092 86.2496393,36.2621592 85.916015,37.1792842 C85.481674,38.3727925 83.6888012,37.9971258 83.6701075,37.9927175 C83.668963,37.9925258 83.6678185,37.9929092 83.6668647,37.9927175 C83.6453098,37.9804508 83.6269977,37.9641592 83.6025815,37.9561092 C82.8910786,37.7199758 82.0012231,37.0777008 81.6599688,36.5525342 C81.2370728,35.9041258 80.9492289,35.1177175 80.7828936,34.1526758 C80.796437,34.0942175 80.7960555,34.0338425 80.7876624,33.9753842 C82.0122867,32.9407675 82.8857376,31.3535758 82.8420555,28.7842842 C82.807148,26.7355592 82.2257376,25.1767342 81.1144197,24.1524675 C79.6418185,22.7939342 77.7201884,22.8529675 77.3522289,22.8775008 C77.3278127,22.8759675 77.3075931,22.8836342 77.2848936,22.8861258 C76.9651942,22.3331675 76.5232231,21.9833758 76.4995699,21.9647842 C76.4141133,21.8998092 76.3048127,21.8722092 76.1983734,21.8931008 C76.0923156,21.9124592 75.9999919,21.9766675 75.9435295,22.0694342 L75.3241595,23.0889092 C74.5489457,23.3003175 70.9540439,24.2780092 70.9012058,24.2921925 C70.7146509,24.3192175 70.5429746,24.4610508 70.4701075,24.6739925 C70.2373908,25.3559425 71.2350208,26.7093008 71.3338301,26.8147175 C71.5158069,27.0073425 71.7515757,27.0895675 71.9373676,27.1403592 C72.2162462,27.2156842 72.7989919,27.2718425 73.2295179,27.1604842 C73.7111653,27.0372425 73.8784543,26.6257342 74.0003445,26.3253925 L74.0524197,26.1887342 C74.0524197,26.1879675 74.0524197,26.1864342 74.0531827,26.1856675 C74.0716855,26.1962092 74.0888532,26.2075175 74.0991538,26.2163342 C74.1727838,26.2820758 74.2233329,26.4024425 74.2382116,26.5458092 C74.295437,27.0911008 74.2374486,27.1336508 73.9549457,27.2419425 L72.2578301,27.6714675 C72.1531075,27.6975342 72.0645988,27.7676842 72.0148127,27.8640925 C71.9642636,27.9605008 71.9568243,28.0733925 71.9947838,28.1747842 C72.0148127,28.2294092 72.5016104,29.5193258 73.5654312,29.8465008 C73.6020555,29.8578092 73.639252,29.8631758 73.6760671,29.8719925 C73.4797838,30.1301675 73.3163098,30.4251425 73.1867896,30.7435008 C71.9953561,30.1274842 70.4098301,29.3046592 69.8999514,29.0323008 C69.8597029,28.5640592 69.8522636,28.3967342 69.8486393,28.3116342 C69.844252,28.2025758 69.845015,28.2025758 69.8091538,28.0105258 C69.5951306,26.8467258 69.0093329,26.8348425 68.1433214,26.9431342 C67.9529514,26.9670925 67.8095064,27.1298175 67.8095064,27.3226342 L67.8095064,30.5508758 C67.8095064,30.6674092 67.8623445,30.7780008 67.9537145,30.8504508 L71.9459514,34.0328842 L69.8909861,34.0353758 L69.7214081,33.0889258 C69.6344254,32.7305092 69.1899746,32.1501425 68.0979225,32.3584842 C67.9180439,32.3920258 67.7871884,32.5497675 67.7871884,32.7341508 L67.7871884,36.6272842 C67.7871884,36.7997842 67.9024023,36.9513925 68.0681653,36.9962425 L72.7841133,38.2798342 C73.6007202,39.8223675 74.6487087,40.5286592 75.4271653,40.8468258 C75.4271653,40.8468258 75.8151538,40.9992008 75.8338474,41.0024592 C75.4046566,41.6324675 74.8011191,42.7380008 75.0418474,43.7045758 C75.2142867,44.3968758 75.7338936,44.9302842 76.5873156,45.2925342 L76.4171653,46.0902508 L75.5391364,46.0902508 C75.5137665,46.0797092 74.7311133,45.9685425 74.2433618,46.5025258 C73.897911,46.8812592 73.8189399,47.4526175 74.0093098,48.2020342 C74.0524197,48.3705092 74.2040671,48.4895342 74.3778416,48.4895342 L77.8746971,48.4895342 C78.0147087,48.4895342 78.1432751,48.4124842 78.2100382,48.2886675 L80.3279514,44.3386092 C80.3859399,44.2303175 80.3882289,44.1003675 80.3346277,43.9892008 C80.2812173,43.8786092 80.1770671,43.8009842 80.0567029,43.7799008 C80.0507896,43.7791342 79.3318474,43.6388342 79.184015,43.1840092 C79.0699457,42.8347925 79.2973214,42.3080925 79.8211249,41.6798092 C80.9225237,43.1606258 82.6793445,43.7662925 83.3788301,43.9518258 C83.4278532,45.8677258 82.4964139,46.1492842 81.7410382,46.3779425 C81.6117087,46.4174258 81.4936335,46.4534592 81.3917723,46.4929425 C80.4462173,46.8603675 80.3233734,48.1510508 80.3189861,48.2056758 C80.3094486,48.3124342 80.3456913,48.4184258 80.4177954,48.4977758 C80.4898994,48.5769342 80.5911884,48.6215925 80.6982,48.6215925" id="Fill-31"></path>
        </g>
    </g>
</svg>