<?xml version="1.0" encoding="UTF-8"?>
<svg width="91px" height="17px" viewBox="0 0 91 17" version="1.1" xmlns="http://www.w3.org/2000/svg" xmlns:xlink="http://www.w3.org/1999/xlink">
    <!-- Generator: Sketch 48.1 (47250) - http://www.bohemiancoding.com/sketch -->
    <title>logo-mirego</title>
    <desc>Created with Sketch.</desc>
    <defs></defs>
    <g id="Homepage" stroke="none" stroke-width="1" fill="none" fill-rule="evenodd" transform="translate(-60.000000, -68.000000)" opacity="0.6">
        <path d="M74.8526123,68 L74.4946298,68 C74.3833508,68 74.180739,68.0942458 74.1135517,68.2361562 L68.9191314,78.4363729 L68.87399,78.4363729 L63.6785199,68.2361562 C63.6123824,68.0942458 63.4108204,68 63.2984916,68 L62.9405091,68 C62.7609929,68 62.559431,68.1635761 62.5363353,68.3769834 L60.0063125,84.2427834 C59.961171,84.5515198 60.1637828,84.764927 60.4335819,84.764927 L63.0738339,84.764927 C63.2984916,84.764927 63.4769579,84.5753521 63.5011034,84.3857771 L64.4847678,77.0909323 L64.5299093,77.0909323 L68.3144455,84.7400115 C68.3816328,84.8819219 68.561149,85 68.6944738,85 L69.0975978,85 C69.2088768,85 69.4114886,84.8819219 69.4786759,84.7400115 L73.2401165,77.0909323 L73.2852579,77.0909323 L74.2930679,84.3857771 C74.3140639,84.5753521 74.5166757,84.764927 74.7171879,84.764927 L77.3605893,84.764927 C77.6293386,84.764927 77.8319504,84.5515198 77.7868089,84.2427834 L75.2557363,68.3769834 C75.2336904,68.1635761 75.0321285,68 74.8526123,68 M84.5380855,68.2361562 L81.8495426,68.2361562 C81.6269846,68.2361562 81.4243728,68.4484802 81.4243728,68.6846365 L81.4243728,84.3153635 C81.4243728,84.5515198 81.6269846,84.764927 81.8495426,84.764927 L84.5380855,84.764927 C84.7606435,84.764927 84.9622055,84.5515198 84.9622055,84.3153635 L84.9622055,68.6846365 C84.9622055,68.4484802 84.7606435,68.2361562 84.5380855,68.2361562 M101.571123,73.3351813 C101.571123,70.5262219 99.3759869,68.2361562 96.6884938,68.2361562 L89.9939065,68.2361562 C89.747203,68.2361562 89.5687367,68.4484802 89.5687367,68.6846365 L89.5687367,84.3153635 C89.5687367,84.5515198 89.747203,84.764927 89.9939065,84.764927 L92.658304,84.764927 C92.8819118,84.764927 93.0834738,84.5515198 93.0834738,84.3153635 L93.0834738,78.2944625 L94.6287823,78.2944625 L97.6081204,84.5515198 C97.6532618,84.6457656 97.7865867,84.764927 97.9661028,84.764927 L100.943341,84.764927 C101.324419,84.764927 101.48084,84.3857771 101.324419,84.0802906 L98.256898,78.0821385 C100.203231,77.2545084 101.571123,75.5082521 101.571123,73.3351813 M96.3976987,75.2948448 L93.0834738,75.2948448 L93.0834738,71.611674 L96.3976987,71.611674 C97.3162754,71.611674 98.1015273,72.4154719 98.1015273,73.4055949 C98.1015273,74.3989677 97.3162754,75.2948448 96.3976987,75.2948448 M115.075776,68.2361562 L105.804974,68.2361562 C105.559321,68.2361562 105.380854,68.4484802 105.380854,68.6846365 L105.380854,84.3153635 C105.380854,84.5515198 105.559321,84.764927 105.804974,84.764927 L115.075776,84.764927 C115.322479,84.764927 115.501995,84.5515198 115.501995,84.3153635 L115.501995,81.7425604 C115.501995,81.5042376 115.322479,81.2929969 115.075776,81.2929969 L108.872496,81.2929969 L108.872496,78.1059708 L113.978733,78.1059708 C114.20234,78.1059708 114.403902,77.9153126 114.403902,77.655324 L114.403902,75.0825209 C114.403902,74.8463646 114.20234,74.6340407 113.978733,74.6340407 L108.872496,74.6340407 L108.872496,71.7070031 L115.075776,71.7070031 C115.322479,71.7070031 115.501995,71.4946792 115.501995,71.2574396 L115.501995,68.6846365 C115.501995,68.4484802 115.322479,68.2361562 115.075776,68.2361562 M131.548219,76.2643854 L127.048767,76.2643854 C126.802064,76.2643854 126.621498,76.4528771 126.621498,76.7128656 L126.621498,79.0495125 C126.621498,79.2856688 126.802064,79.4752437 127.048767,79.4752437 L128.458652,79.4752437 L128.458652,80.8423501 C127.787828,81.1272542 127.114905,81.2215 126.466127,81.2215 C124.024288,81.2215 122.032814,79.0960938 122.032814,76.5232906 C122.032814,73.9266552 124.002242,71.7546677 126.444082,71.7546677 C127.541125,71.7546677 128.525839,72.0612375 129.377228,72.8867011 C129.554645,73.0296948 129.803448,73.0296948 129.981914,72.8639521 L131.749781,70.8804563 C131.929297,70.689798 131.908301,70.4081438 131.705689,70.2413178 C130.184526,68.8492959 128.122715,68.022749 126.24252,68.022749 C121.78611,68.022749 118.203136,71.801249 118.203136,76.5232906 C118.203136,81.2464156 121.78611,84.9761677 126.24252,84.9761677 C129.488507,84.9761677 131.795972,83.4433187 131.795972,83.4433187 C131.884155,83.3696553 131.974438,83.1811636 131.974438,83.0641687 L131.951343,76.7128656 C131.951343,76.4767094 131.772876,76.2643854 131.548219,76.2643854 M142.937521,68 C138.460115,68 134.898137,71.801249 134.898137,76.5232906 C134.898137,81.2464156 138.460115,85 142.937521,85 C147.415976,85 151,81.2464156 151,76.5232906 C151,71.801249 147.415976,68 142.937521,68 M142.937521,81.2215 C140.497781,81.2215 138.482161,79.0960938 138.482161,76.5232906 C138.482161,73.9266552 140.497781,71.7774167 142.937521,71.7774167 C145.401406,71.7774167 147.415976,73.9266552 147.415976,76.5232906 C147.415976,79.0960938 145.401406,81.2215 142.937521,81.2215" id="logo-mirego" fill="#000000"></path>
    </g>
</svg>